<svg xmlns="http://www.w3.org/2000/svg" width="20.921" height="19.092" viewBox="0 0 20.921 19.092">
    <g data-name="Group 7774">
        <g data-name="Group 7773">
            <path data-name="Path 28618" d="M24 13.152a2.461 2.461 0 0 0-1.825-2.372V6.856a.474.474 0 0 0-.182-.365.684.684 0 0 0-.456-.091L13.6 9.137h-3.559A3.7 3.7 0 0 0 6.3 12.878v.456a3.93 3.93 0 0 0 1.734 3.193v5.2a2.19 2.19 0 1 0 4.379 0v-4.652H13.6l7.938 2.737h.182a.335.335 0 0 0 .274-.091.474.474 0 0 0 .182-.365v-3.924A2.278 2.278 0 0 0 24 13.152zm-16.788.182v-.365a2.843 2.843 0 0 1 2.828-2.828h3.193v6.022h-3.192a2.843 2.843 0 0 1-2.829-2.829zm4.288 8.394a1.277 1.277 0 1 1-2.555 0v-4.836a4.579 4.579 0 0 0 1.095.182h1.46zm9.762-2.92-7.025-2.463v-6.3l7.025-2.463zm.912-4.288v-2.737a1.483 1.483 0 0 1 0 2.737z" transform="translate(-3.229 -5.581)" style="stroke:#424242;stroke-width:.3px;fill:#424242"/>
        </g>
        <g data-name="Rectangle 4251" transform="rotate(45 1.061 2.561)" style="stroke:#fff;fill:#424242">
            <rect width="24" height="3" rx="1.5" style="stroke:none"/>
            <rect x=".5" y=".5" width="23" height="2" rx="1" style="fill:none"/>
        </g>
    </g>
</svg>
