<svg data-name="Component 10 – 1" xmlns="http://www.w3.org/2000/svg" width="69.147" height="12.864" viewBox="0 0 69.147 12.864">
    <g data-name="Group 10019">
        <path data-name="Path 28522" d="M-10.568 0h56.284a6.432 6.432 0 0 1 0 12.864h-56.284A6.432 6.432 0 0 1-17 6.432 6.432 6.432 0 0 1-10.568 0z" transform="translate(17)" style="fill:#f60101"/>
    </g>
    <path data-name="Path 29183" d="M-45.444-7.878v1.559h1.967v.8h-1.967v1.59h2.5v.836h-3.545V-8.71h3.545v.832zm7.988 4.789H-38.5a.259.259 0 0 1-.173-.054.448.448 0 0 1-.1-.124l-1.3-2.157a.771.771 0 0 1-.074.167L-41.4-3.268a.8.8 0 0 1-.107.122.221.221 0 0 1-.157.056h-.976l1.866-2.892-1.79-2.728h1.042a.319.319 0 0 1 .157.029.294.294 0 0 1 .091.1l1.279 2.06a1.659 1.659 0 0 1 .095-.199l1.174-1.846a.331.331 0 0 1 .093-.109.22.22 0 0 1 .128-.035h1l-1.808 2.686zm4.292-1.326a.209.209 0 0 1 .152.066l.412.447a2.263 2.263 0 0 1-.842.649 2.9 2.9 0 0 1-1.2.225 2.834 2.834 0 0 1-1.125-.214 2.48 2.48 0 0 1-.853-.595 2.6 2.6 0 0 1-.542-.91 3.414 3.414 0 0 1-.189-1.153 3.214 3.214 0 0 1 .2-1.16 2.667 2.667 0 0 1 .569-.908 2.577 2.577 0 0 1 .882-.592 2.907 2.907 0 0 1 1.127-.212 2.769 2.769 0 0 1 1.09.2 2.6 2.6 0 0 1 .811.529l-.35.486a.317.317 0 0 1-.08.082.226.226 0 0 1-.134.035.256.256 0 0 1-.121-.033q-.062-.033-.136-.082t-.171-.107a1.408 1.408 0 0 0-.225-.107 1.84 1.84 0 0 0-.3-.082 2.054 2.054 0 0 0-.391-.033 1.734 1.734 0 0 0-.69.134 1.5 1.5 0 0 0-.538.389 1.792 1.792 0 0 0-.35.622 2.606 2.606 0 0 0-.124.838 2.462 2.462 0 0 0 .134.844 1.855 1.855 0 0 0 .363.622 1.552 1.552 0 0 0 .54.387 1.67 1.67 0 0 0 .669.134 2.913 2.913 0 0 0 .387-.023 1.642 1.642 0 0 0 .319-.074 1.415 1.415 0 0 0 .276-.13 1.724 1.724 0 0 0 .259-.2.369.369 0 0 1 .082-.056.2.2 0 0 1 .089-.017zm2.332 1.326h-1.05V-8.71h1.05zm5.182-4.762h-1.695v4.762h-1.046v-4.762h-1.695v-.859h4.435zm1.788 4.762h-1.05V-8.71h1.05zm5.994-5.621v5.621h-.532a.472.472 0 0 1-.208-.041.486.486 0 0 1-.161-.138l-2.935-3.747q.023.257.023.474v3.452h-.921V-8.71h.548a.978.978 0 0 1 .115.006.276.276 0 0 1 .086.023.28.28 0 0 1 .072.051.81.81 0 0 1 .078.087l2.947 3.763q-.012-.136-.019-.268t-.008-.245V-8.71zm5.885 2.8v2.274a2.979 2.979 0 0 1-.912.461 3.575 3.575 0 0 1-1.036.146 3.457 3.457 0 0 1-1.246-.214 2.789 2.789 0 0 1-.952-.595 2.606 2.606 0 0 1-.608-.91 3.051 3.051 0 0 1-.214-1.152 3.175 3.175 0 0 1 .206-1.162 2.622 2.622 0 0 1 .585-.91 2.612 2.612 0 0 1 .919-.591 3.326 3.326 0 0 1 1.213-.21 3.553 3.553 0 0 1 .639.054 3.237 3.237 0 0 1 .552.15 2.391 2.391 0 0 1 .465.231 2.772 2.772 0 0 1 .385.3l-.3.474a.286.286 0 0 1-.183.138.327.327 0 0 1-.245-.056l-.257-.148a1.655 1.655 0 0 0-.286-.128 2.345 2.345 0 0 0-.354-.089 2.6 2.6 0 0 0-.453-.035 1.94 1.94 0 0 0-.752.14 1.591 1.591 0 0 0-.573.4 1.8 1.8 0 0 0-.365.626 2.453 2.453 0 0 0-.128.816 2.506 2.506 0 0 0 .138.861 1.811 1.811 0 0 0 .389.641 1.657 1.657 0 0 0 .6.4 2.155 2.155 0 0 0 .789.138 2.138 2.138 0 0 0 .556-.066 2.733 2.733 0 0 0 .478-.179v-1.017h-.707a.213.213 0 0 1-.157-.056.188.188 0 0 1-.056-.138v-.591zm7.891.008A3.04 3.04 0 0 1-4.3-4.764a2.607 2.607 0 0 1-.579.89 2.591 2.591 0 0 1-.9.579 3.166 3.166 0 0 1-1.166.206h-2.138V-8.71h2.142a3.14 3.14 0 0 1 1.166.21 2.629 2.629 0 0 1 .9.579 2.587 2.587 0 0 1 .579.888A3.04 3.04 0 0 1-4.091-5.9zm-1.073 0a2.617 2.617 0 0 0-.122-.83 1.72 1.72 0 0 0-.354-.622 1.543 1.543 0 0 0-.56-.391 1.919 1.919 0 0 0-.741-.136h-1.091v3.957h1.092a1.919 1.919 0 0 0 .741-.133 1.543 1.543 0 0 0 .56-.391 1.72 1.72 0 0 0 .354-.622 2.617 2.617 0 0 0 .122-.83zm3.044-1.979v1.559h1.967v.8h-1.967v1.59h2.5v.836H-3.17V-8.71H.375v.832zm6.391 2.67-.684-1.87q-.051-.124-.1-.3t-.109-.369q-.051.2-.1.371t-.1.3l-.68 1.862zm1.847 2.122h-.809a.345.345 0 0 1-.222-.068.424.424 0 0 1-.128-.169l-.42-1.147H2.21l-.42 1.147a.373.373 0 0 1-.121.163.336.336 0 0 1-.222.074H.632L2.843-8.71h1.066zm3.876-.863v.863H6.7V-8.71h1.045v4.758zm3.74-3.736a.361.361 0 0 1-.1.119.221.221 0 0 1-.13.037.336.336 0 0 1-.177-.06l-.227-.134a1.873 1.873 0 0 0-.309-.134 1.3 1.3 0 0 0-.418-.06 1.247 1.247 0 0 0-.381.052.8.8 0 0 0-.274.146.583.583 0 0 0-.165.224.734.734 0 0 0-.054.286.5.5 0 0 0 .111.33.925.925 0 0 0 .293.225 2.724 2.724 0 0 0 .416.167q.233.074.478.157a4.5 4.5 0 0 1 .478.194 1.65 1.65 0 0 1 .416.28 1.268 1.268 0 0 1 .293.414 1.438 1.438 0 0 1 .111.595 1.938 1.938 0 0 1-.13.713 1.646 1.646 0 0 1-.381.579 1.794 1.794 0 0 1-.612.389 2.254 2.254 0 0 1-.828.142 2.67 2.67 0 0 1-.529-.052 2.783 2.783 0 0 1-.5-.15 2.676 2.676 0 0 1-.449-.233 2.165 2.165 0 0 1-.373-.3l.307-.5a.328.328 0 0 1 .1-.091.255.255 0 0 1 .132-.037.371.371 0 0 1 .21.08q.113.08.268.177a2.111 2.111 0 0 0 .363.177 1.4 1.4 0 0 0 .5.08 1.025 1.025 0 0 0 .692-.212.761.761 0 0 0 .246-.612.565.565 0 0 0-.11-.364.894.894 0 0 0-.293-.235 2.191 2.191 0 0 0-.416-.161q-.233-.066-.474-.144a4.09 4.09 0 0 1-.474-.187 1.536 1.536 0 0 1-.416-.284 1.291 1.291 0 0 1-.293-.437 1.667 1.667 0 0 1-.111-.647 1.532 1.532 0 0 1 .122-.6A1.546 1.546 0 0 1 11-8.274a1.743 1.743 0 0 1 .575-.362 2.113 2.113 0 0 1 .785-.136 2.622 2.622 0 0 1 .917.155 2.071 2.071 0 0 1 .715.435z" transform="translate(50.992 12.333)" style="fill:#fff"/>
</svg>
