<svg id="HH-Mast-With-Shadow" xmlns="http://www.w3.org/2000/svg" width="89.037" height="22.032" viewBox="0 0 89.037 22.032">
    <defs>
        <style>
            .cls-1,.cls-2{fill:#fff;fill-rule:evenodd}.cls-2{fill:#bbbdbf}
        </style>
    </defs>
    <path id="Fill-1" class="cls-1" d="M217.045 118.073a13.524 13.524 0 0 0 7.356 2.286c4.05 0 4.488-1.69 4.488-2.416 0-1.078-1.237-2.239-3.953-2.239a7.905 7.905 0 0 0-3.582.893l.727.921a5.8 5.8 0 0 1 2.552-.741h.072a1.225 1.225 0 0 1 1.35 1.034c0 .347-.159 1.478-2.2 1.478a11.381 11.381 0 0 1-6.018-2.115z" transform="translate(-185.208 -98.823)"/>
    <path id="Fill-3" class="cls-1" d="m30.228 13.717-.044.043h-7.8l-.044-.043a1.683 1.683 0 0 1-.563-1.194c0-1.372 1.98-2.447 4.507-2.447s4.507 1.075 4.507 2.447a1.682 1.682 0 0 1-.563 1.194zm73.66 11.454v-10.03h1.572V13.76H33.981l.226-.25a1.861 1.861 0 0 0 .546-1.244c0-1.965-3.8-3.563-8.468-3.563s-8.468 1.6-8.468 3.563a1.861 1.861 0 0 0 .546 1.244l.226.25h-1.658v1.381h1.576v10.03h3.534v-10.03h8.407v1.451h-4.107c-1.6 0-2.168.833-2.168 1.546a1.789 1.789 0 0 0 1.167 1.71l.252.13-.249.135a2.7 2.7 0 0 0-1.542 2.42c0 3.409 5.473 3.581 6.57 3.581.347 0 2.926-.005 3.743-.005v-1.173h-2.925c-2.656 0-3.6-1.282-3.6-2.481a2.526 2.526 0 0 1 2.74-2.407c1.852 0 2 .917 2 1.2a1.127 1.127 0 0 1-1.193 1.08h-1.19v1.009h1.927c.38 0 3.715-.059 3.715-2.121S31.7 19 30.505 19a14.841 14.841 0 0 0-2.443.219l-.041.007-.039-.015a.759.759 0 0 1-.529-.745c0-.508.37-.8 1.014-.8h5.514v-2.525h20.9V16.8h-3.389C48.64 16.8 47 18.077 47 20.306c0 2.248 1.931 3.817 4.7 3.817a5.3 5.3 0 0 0 2.918-.9l.238-.163v1.657a9.944 9.944 0 0 1 1.856-.179 8.587 8.587 0 0 1 1.678.171v-4.68h-3.534v1.03l-.012.028a2.113 2.113 0 0 1-2.117 1.434 2.144 2.144 0 0 1-2.159-2.215 2.212 2.212 0 0 1 2.442-2.215h4.934v-2.95h4.835l.042.035a2.472 2.472 0 0 1 1.1 2.077 2.125 2.125 0 0 1-2.308 2.067h-1.698v1.973c0 .641.246 3.84 5.1 3.84l3.705.03v-1.207c-.525.019-1.022.019-2.006.019-2.9 0-3.363-.778-3.363-2.639v-.77h5.746a5 5 0 0 1 .228-1.189h-2.889l.376-.272a2.417 2.417 0 0 0 .889-1.87 3.259 3.259 0 0 0-.666-1.854l-.194-.244H79.3V16.8h-4.252c-2.915 0-4.727 1.575-4.727 4.112 0 2.815 1.755 4.242 5.217 4.242h1.7v-1.2H76.824a2.657 2.657 0 0 1-2.828-2.893 2.689 2.689 0 0 1 2.755-2.923h2.545v7.035h3.533V15.141h2.12v10.03h3.534v-10.03h11.879V16.8H94.13c-2.533 0-4.236 1.421-4.236 3.537s1.784 3.39 4.771 3.39c3.148 0 4.265-1.484 4.265-2.755a4.013 4.013 0 0 0-.5-1.884h-2.761a4.337 4.337 0 0 1 .471 1.781c0 .972-.533 1.625-1.326 1.625-1.036 0-1.579-1.018-1.579-2.023a2.158 2.158 0 0 1 2.174-2.333h4.946v7.035z" transform="translate(-16.924 -8.703)"/>
    <path id="Fill-5" class="cls-1" d="M150.1 61.355a4.51 4.51 0 0 1 .9-1.337h-6.2c-2.533 0-4.236 1.421-4.236 3.537s1.784 3.39 4.771 3.39c3.148 0 4.265-1.484 4.265-2.755a4.017 4.017 0 0 0-.5-1.884h-2.758a4.335 4.335 0 0 1 .472 1.781c0 .972-.533 1.625-1.326 1.625-1.036 0-1.579-1.018-1.579-2.023a2.158 2.158 0 0 1 2.174-2.333z" transform="translate(-120.896 -51.923)"/>
    <path id="Fill-7" class="cls-2" d="M170.144 60.069h-.06l-.133.137a4.358 4.358 0 0 0-.858 1.269l-.053.136h-4.16a2.15 2.15 0 0 0-1.278 3.712 2.213 2.213 0 0 1-.4-1.308c0-1.457.757-2.12 1.959-2.12h4.1l.053-.136a4.35 4.35 0 0 1 .762-1.269l.4-.421z" transform="translate(-139.693 -51.965)"/>
    <path id="Fill-9" class="cls-2" d="M154.181 74.365h-.357l.047.095a4.438 4.438 0 0 1 .433 1.813c0 1.369-1.173 2.968-4.48 2.968a5.88 5.88 0 0 1-3.922-1.163 5.481 5.481 0 0 0 4.209 1.447c3.307 0 4.512-1.859 4.512-3.158a4.568 4.568 0 0 0-.441-2" transform="translate(-125.381 -64.006)"/>
    <path id="Fill-11" class="cls-2" d="M87.8 81.992a2.317 2.317 0 0 0-2.525 2.194 1.947 1.947 0 0 0 .736 1.528 1.924 1.924 0 0 1-.45-1.244c0-1.064.659-2.194 2.525-2.194a2.484 2.484 0 0 1 1.377.3c-.176-.282-.609-.589-1.663-.589" transform="translate(-74.399 -70.43)"/>
    <path id="Fill-13" class="cls-2" d="M16.892 51.146h1.367v-.284h-1.367z" transform="translate(-16.892 -44.211)"/>
    <path id="Fill-15" class="cls-2" d="M74.774 110.514v1.386h-3.958c-.834 0-4.116-.1-5.79-1.595 1.553 1.767 5.192 1.879 6.077 1.879H75.062v-1.67h-.286" transform="translate(-57.369 -94.281)"/>
    <path id="Fill-16" class="cls-2" d="M241.952 51.146h.025a1.9 1.9 0 0 0-.311-.284h-4.542v2.95h-5.149a2.01 2.01 0 0 0-2.227 2 2.06 2.06 0 0 0 .749 1.6 2.112 2.112 0 0 1-.463-1.319c0-1.2.668-2 2.227-2h5.149v-2.95z" transform="translate(-195.891 -44.211)"/>
    <path id="Fill-17" class="cls-2" d="M38.556 50.862h-7.978v10.03h-3.751v.284h4.037v-10.03h7.692z" transform="translate(-25.247 -44.211)"/>
    <path id="Fill-18" class="cls-2" d="M53.268 18.991a6.1 6.1 0 0 1 3.713 1.109 5.342 5.342 0 0 0-3.936-1.344c-2.367 0-4.292 1-4.292 2.234a1.466 1.466 0 0 0 .481 1.024h.052a1.317 1.317 0 0 1-.246-.74c0-1.361 1.862-2.282 4.229-2.282" transform="translate(-43.685 -17.168)"/>
    <path id="Fill-19" class="cls-2" d="M379.535 69.841a2.487 2.487 0 0 0-2.54 2.71 2.551 2.551 0 0 0 .848 2.109 2.756 2.756 0 0 1-.562-1.825 2.394 2.394 0 0 1 2.54-2.71h2.044v-.284z" transform="translate(-319.716 -60.196)"/>
    <path id="Fill-20" class="cls-2" d="M344.214 51.146v-.284h-11.807a3.529 3.529 0 0 1 .651 1.884 2.712 2.712 0 0 1-.853 1.928h.372a2.917 2.917 0 0 0 .778-1.8 3.645 3.645 0 0 0-.408-1.729z" transform="translate(-282.05 -44.211)"/>
    <path id="Fill-21" class="cls-2" d="M499.948 69.841a2.15 2.15 0 0 0-1.277 3.712 2.212 2.212 0 0 1-.4-1.308 1.856 1.856 0 0 1 1.959-2.12h4.445v-.284z" transform="translate(-421.464 -60.196)"/>
    <path id="Fill-22" class="cls-2" d="M117.819 17.28a2 2 0 0 1-.51 1.281h.4a2.306 2.306 0 0 0 .417-1c.072-.593.071-1.894-2.668-2.908 2.133.935 2.366 2.134 2.366 2.624" transform="translate(-99.776 -13.717)"/>
    <path id="Fill-23" class="cls-2" d="M104.234 81.324a1.622 1.622 0 0 1 .38 1.061c0 2.268-3.527 2.334-3.929 2.334h-1.928V85h.286c.391 0 1.3.005 1.9.005.774 0 3.913-.346 3.913-2.334a1.648 1.648 0 0 0-.618-1.345" transform="translate(-85.735 -69.867)"/>
    <path id="Fill-24" class="cls-2" d="M459.664 51.146v-.284h-11.449v10.029h-3.756v.284h4.041V51.146z" transform="translate(-376.448 -44.211)"/>
    <path id="Fill-25" class="cls-2" d="M365.611 105.233h-.286v1.435h-1.911a6.321 6.321 0 0 1-4.043-1.114 1.485 1.485 0 0 1-.112-.1 3.534 3.534 0 0 0 .4.381 6.321 6.321 0 0 0 4.043 1.114h1.911z" transform="translate(-304.803 -90.004)"/>
    <path id="Fill-26" class="cls-2" d="M546.964 40.709h-.286v1.6h-1.572V52.34h-3.756v.284h4.042V42.595h1.572z" transform="translate(-457.929 -35.66)"/>
    <path id="Fill-27" class="cls-2" d="M414.361 50.862h-1.691v10.03h-3.756v.284h4.043v-10.03h1.4z" transform="translate(-346.557 -44.211)"/>
    <path id="Fill-28" class="cls-2" d="M316.038 76.331a5.268 5.268 0 0 0-.216 1.21l-.013.2h-5.733v.559c0 .916.089 1.552.626 1.943a2.8 2.8 0 0 1-.34-1.659v-.557h5.733l.013-.2a5.476 5.476 0 0 1 .138-1.137l.091-.358h-.3z" transform="translate(-263.441 -65.662)"/>
    <path id="Fill-29" class="cls-2" d="M219.059 100.316a5.538 5.538 0 0 1-2.941.874 5.44 5.44 0 0 1-3.67-1.238 5.23 5.23 0 0 0 3.956 1.49 5.576 5.576 0 0 0 2.655-.7z" transform="translate(-181.342 -85.557)"/>
    <path id="Fill-30" class="cls-2" d="M111.439 51.146v-.284H90.964v2.522h-5.729c-.365 0-.8.1-.8.586a.535.535 0 0 0 .331.519.614.614 0 0 1-.044-.235c0-.485.435-.586.8-.586h5.729v-2.522z" transform="translate(-73.692 -44.211)"/>
    <path id="Fill-31" class="cls-2" d="m302 105.2-.285.01v1.444l-3.921-.033a5.869 5.869 0 0 1-4.05-1.23c.743.821 2.046 1.514 4.337 1.514l3.92.033z" transform="translate(-249.713 -89.976)"/>
    <path id="Fill-32" class="cls-2" d="M259.066 80.443v4.947l-.257-.051a8.375 8.375 0 0 0-1.635-.167 10.837 10.837 0 0 0-1.864.169v.345a9.617 9.617 0 0 1 4.043.1v-5.343h-.286z" transform="translate(-217.385 -69.125)"/>
    <path id="Fill-33" class="cls-2" d="M251.972 123.848h-.063a5.549 5.549 0 0 0-2.439.682l.2.265a5.809 5.809 0 0 1 2.52-.663h.063a1.4 1.4 0 0 1 .753.208 1.209 1.209 0 0 0-1.039-.492" transform="translate(-212.475 -105.683)"/>
    <path id="Fill-34" class="cls-2" d="M227.339 122.34a1.834 1.834 0 0 1 .471 1.192c0 .791-.458 2.629-4.7 2.629a14.281 14.281 0 0 1-7.463-2.362l-.138.145.208.133a14.471 14.471 0 0 0 7.679 2.367c3.975 0 4.671-1.886 4.671-2.677a1.826 1.826 0 0 0-.725-1.429" transform="translate(-183.914 -104.413)"/>
    <path id="Fill-35" class="cls-2" d="m489.144 74.529.046.095a4.439 4.439 0 0 1 .433 1.813c0 1.37-1.173 2.969-4.48 2.969a5.879 5.879 0 0 1-3.922-1.163 5.481 5.481 0 0 0 4.209 1.447c3.307 0 4.512-1.859 4.512-3.158a4.568 4.568 0 0 0-.441-2z" transform="translate(-407.363 -64.144)"/>
</svg>
