<svg xmlns="http://www.w3.org/2000/svg" width="51.77" height="22.031" viewBox="0 0 51.77 22.031">
    <defs>
        <style>
            .cls-1{fill:none}.cls-2{fill:#b7410e}
        </style>
    </defs>
    <g id="Group_9498" data-name="Group 9498" transform="translate(-932 -2014.642)">
        <g id="Group_9497" data-name="Group 9497">
            <g id="Group_9496" data-name="Group 9496">
                <g id="Group_9495" data-name="Group 9495">
                    <g id="Group_9494" data-name="Group 9494">
                        <g id="htbanglalogo_v1" transform="translate(932 2014.642)">
                            <path id="Rectangle_4225" data-name="Rectangle 4225" class="cls-1" transform="translate(.01)" d="M0 0h51.707v5.697H0z"/>
                            <path id="Rectangle_4226" data-name="Rectangle 4226" class="cls-1" transform="translate(.01)" d="M0 0h51.707v5.697H0z"/>
                            <path id="Path_6199" data-name="Path 6199" class="cls-2" d="m12.986 249.17 1.843 2.081v.347H12.1v1.864c0 7.631.216 10.645.216 10.645h-.324c-3.643-3.772-6.2-5.377-8.586-5.658l-1.6-2.623a42.427 42.427 0 0 1 7.783-3.946v-.28H1.843L0 249.516v-.346zm-7.544 8.022a5.812 5.812 0 0 1 3.534 2.818h.108v-2.3a10.686 10.686 0 0 1 .261-2.58 26.35 26.35 0 0 0-3.9 2.061z" transform="translate(0 -242.445)"/>
                            <path id="Path_6200" data-name="Path 6200" class="cls-2" d="M446.294 249.17h.26a.047.047 0 0 1 .034.015l1.817 2.053a.045.045 0 0 1 .012.031v.283a.046.046 0 0 1-.046.046h-1.211a1.5 1.5 0 0 1-1.331-.568.045.045 0 0 0-.036-.017h-.062a.046.046 0 0 0-.046.046v2.925a100.129 100.129 0 0 0 .3 10.073.046.046 0 0 1-.04.052h-.26a.045.045 0 0 1-.031-.012l-3.029-2.77a.045.045 0 0 1-.015-.036c.014-.3.172-3.7.172-5.9 0-2.948-.932-3.794-1.539-3.794h-.088a.045.045 0 0 1-.035-.016l-1.753-2.051a.045.045 0 0 1-.011-.03v-.285a.046.046 0 0 1 .046-.046h4.356" transform="translate(-427.498 -242.445)"/>
                            <path id="Path_6201" data-name="Path 6201" class="cls-2" d="M796.857 255.2a3.506 3.506 0 0 1-3.317-3.512 3.2 3.2 0 0 1 3.359-3.317 3.276 3.276 0 0 1 3.317 3.317 3.345 3.345 0 0 1-3.359 3.512zm5.962 7.978a1.08 1.08 0 0 1-.629.52l-7.956-5.073 2.515-1.754zm-7.393-9.5c1.107 0 3.36-2.342 3.36-3.447a.348.348 0 0 0-.368-.39c-1.041 0-3.36 2.407-3.36 3.425 0 .238.109.412.369.412z" transform="translate(-772.121 -241.666)"/>
                            <path id="Path_6202" data-name="Path 6202" class="cls-2" d="M1021.64 249.516v-.346h16.26l1.843 2.081v.347h-2.732v1.562c0 8.367.216 10.949.216 10.949h-.347l-2.84-2.537v-3.731c-.043-1.279-.542-1.929-1.041-1.929-.477 0-.954.629-.954 1.908l-.282.129a3.979 3.979 0 0 0-3.231-2.016 2.309 2.309 0 0 0-2.45 2.45c0 .889.5 1.279.91 1.279a.529.529 0 0 0 .564-.542.576.576 0 0 0-.564-.585 1.678 1.678 0 0 1 1.691-1.193 1.843 1.843 0 0 1 1.821 1.973 1.931 1.931 0 0 1-2.146 1.929 4.549 4.549 0 0 1-3.252-1.734 4.679 4.679 0 0 1-1.387-3.273 2.869 2.869 0 0 1 2.948-3.035 3.887 3.887 0 0 1 3.057 1.778h.108a2.065 2.065 0 0 1 1.93-1.8 2.366 2.366 0 0 1 2.19 1.647h.087V251.6h-10.556z" transform="translate(-994.064 -242.445)"/>
                            <path id="Path_6203" data-name="Path 6203" class="cls-2" d="M1585.837 249.17h3.683l1.843 2.081v.347h-1.257a1.49 1.49 0 0 1-1.344-.585h-.13v2.969a92.792 92.792 0 0 0 .3 10.124h-.324l-3.058-2.8s.174-3.62.174-5.918c0-2.948-.932-3.794-1.539-3.794h-.108l-1.778-2.083v-.345h1.041" transform="translate(-1539.593 -242.445)"/>
                            <path id="Path_2240" data-name="Path 2240" d="m1.97 5.921-.116.088a1.01 1.01 0 0 0-.606-.177 1.584 1.584 0 0 0-.7.162v-.006a1.469 1.469 0 0 1 .823-.239.955.955 0 0 1 .6.171m46.924-.1a.253.253 0 0 1 .054-.123.712.712 0 0 1 .238-.034 1.305 1.305 0 0 1 .926.327L50 6.056a1.28 1.28 0 0 0-.858-.285.671.671 0 0 0-.252.048m-29.552 0a.254.254 0 0 1 .054-.124.712.712 0 0 1 .238-.034 1.239 1.239 0 0 1 .871.327l-.108.068a1.24 1.24 0 0 0-.8-.285.693.693 0 0 0-.252.048M7.98 5.369a3.365 3.365 0 0 0 .666.564l-.136.089a3.313 3.313 0 0 1-.656-.565zm32.444 0a3.362 3.362 0 0 0 .667.565l-.135.089a3.32 3.32 0 0 1-.653-.566zm-11.806 0a3.362 3.362 0 0 0 .667.565l-.135.089a3.313 3.313 0 0 1-.653-.565zm9.782-.041a2.845 2.845 0 0 0 .729.606l-.135.089a3.116 3.116 0 0 1-.714-.606zm-32.451 0a2.972 2.972 0 0 0 .729.606l-.135.089a3.116 3.116 0 0 1-.714-.606zm16.817-.088a4.822 4.822 0 0 0 .953.721l-.135.095a4.674 4.674 0 0 1-.939-.729zm2.776.783a2.231 2.231 0 0 1-.64-.572v-.668a5.1 5.1 0 0 0-.026-.6l.143-.054c.007.162.02.374.02.585V5.4a2.063 2.063 0 0 0 .638.524zm25.191-.55V4.3l-.4-.177.081-.088.456.2v1.346l-.02.007zm-29.606 0V4.3l-.4-.177.081-.088.456.2v1.346l-.02.007zM25.9 4.357a2.3 2.3 0 0 1 .048-.585 3.438 3.438 0 0 0 .606.108v1.426c-.108.048-.225.088-.32.135a1.546 1.546 0 0 1-.334-.251v-.837zM2.739 3.1h.98v.115h-.98zm-2.6.15.123-.15h.756v.115H.69a3.234 3.234 0 0 0-.55.034m12.548 2.685-.135.088a2.436 2.436 0 0 1-.694-.633V3.443c0-.463-.007-.66-.02-.823l.15-.061v2.782a2.226 2.226 0 0 0 .7.592m12.29-2.864c.238-.162.463-.34.687-.524a2.409 2.409 0 0 0 .884.374v.81a2.381 2.381 0 0 1-1.572-.66m22-.524L47 2.538a6.77 6.77 0 0 0 .66 1.1l-.68.367zm3.041 1.8-.088.1-.9-.422V3.01a4.2 4.2 0 0 0-.026-.47l.162-.048v1.464zm-29.606 0-.09.094-.9-.421V3.01a4.2 4.2 0 0 0-.026-.47l.162-.048v1.464zm16.993 1.01a2.383 2.383 0 0 1-1.763.741A2.549 2.549 0 0 1 33.8 5.4a2.181 2.181 0 0 1-.64-1.579 1.849 1.849 0 0 1 .6-1.354l.007.007a1.892 1.892 0 0 0-.467 1.289 2.159 2.159 0 0 0 .64 1.552 2.383 2.383 0 0 0 1.754.653 2.475 2.475 0 0 0 1.706-.613zM22.753 2.517h-.238l.068-.122h.17zm1.87-.114-.108.143a3.779 3.779 0 0 0-.64-.026v-.125h.736zm22.442 3.64a8.649 8.649 0 0 1-1.1-1.13V3.19c0-.34-.02-.639-.034-.756l.143-.034a5.609 5.609 0 0 1 .026.667v1.792a8.807 8.807 0 0 0 1.089 1.1zm-19.754-.108-.135.088a2.711 2.711 0 0 1-.544-.612V2.857a2.5 2.5 0 0 1-.912-.381l.095-.1a2.68 2.68 0 0 0 .945.4v2.579a3.353 3.353 0 0 0 .55.579m-16.719 0-.136.088a3.184 3.184 0 0 1-.571-.522V2.7a1.2 1.2 0 0 0-.327-.32l.124-.053a1.332 1.332 0 0 1 .34.34v2.79a3.06 3.06 0 0 0 .572.476m20.63 0-.135.088a3.2 3.2 0 0 1-.572-.518v-2.8a1.2 1.2 0 0 0-.327-.32l.123-.054a1.323 1.323 0 0 1 .34.34v2.788a3.309 3.309 0 0 0 .572.476m11.813 0-.135.088a3.2 3.2 0 0 1-.572-.518v-2.8a1.2 1.2 0 0 0-.33-.315l.123-.054a1.323 1.323 0 0 1 .34.34v2.783a3.31 3.31 0 0 0 .572.476m1.838 0-.135.088a3.2 3.2 0 0 1-.572-.518v-2.8a1.176 1.176 0 0 0-.341-.327l.123-.054a1.508 1.508 0 0 1 .347.347v2.788a3.667 3.667 0 0 0 .579.476M28.69 5.239V2.688a1.4 1.4 0 0 0-.29-.313l.116-.061a1.734 1.734 0 0 1 .306.32v2.5l-.123.095h-.013zm9.773-.048v-2.5a1.6 1.6 0 0 0-.285-.313l.116-.061a1.734 1.734 0 0 1 .306.32V5.1l-.123.095zm-22.6.15a1.967 1.967 0 0 0 .694.586l-.135.088a2.115 2.115 0 0 1-.694-.633v-2.8a1.283 1.283 0 0 0-.306-.21l.116-.061a1.711 1.711 0 0 1 .32.238v2.793zm24.64-.1V2.688a1.4 1.4 0 0 0-.285-.313l.116-.061a1.708 1.708 0 0 1 .306.32v2.5l-.122.1H40.5zM6.019 5.192v-2.5a1.6 1.6 0 0 0-.285-.313l.116-.061a1.725 1.725 0 0 1 .306.32V5.1l-.122.095zm2.028.048V2.688a1.4 1.4 0 0 0-.285-.313l.116-.061a1.708 1.708 0 0 1 .306.32v2.5l-.122.1h-.014zm9.513-2.757a1.127 1.127 0 0 0-.2-.135l.116-.061a1.022 1.022 0 0 1 .211.162v2.905a2.294 2.294 0 0 0 .544.579l-.135.088a2.036 2.036 0 0 1-.544-.633V2.483zm-4.669.7a3.154 3.154 0 0 1 .088-1.007c.17.095.368.211.606.354v2.758c-.122.048-.252.095-.368.15a1.506 1.506 0 0 1-.326-.266zm38.46-.518-.1.123a.506.506 0 0 1-.177.026 1.437 1.437 0 0 1-1.1-.518v-.131H50a1.472 1.472 0 0 0 1.123.537.709.709 0 0 0 .231-.048zm-29.6 0-.095.123a.506.506 0 0 1-.177.026 1.437 1.437 0 0 1-1.1-.518v-.131h.021a1.471 1.471 0 0 0 1.12.535.706.706 0 0 0 .231-.048zm25.973.94a8.278 8.278 0 0 1-.749-1.273v-.21L47 2.116a7.817 7.817 0 0 0 .844 1.436zM41.961 5.5l-.053-.087c-.068.026-.135.054-.2.081a.831.831 0 0 1-.177-.122V2.605c.115-.061.25-.122.381-.176a1.181 1.181 0 0 1 .326.313v2.817a3.037 3.037 0 0 0 .653.586h.02a9.674 9.674 0 0 1 .972-.653l-.051-.092-.191.081a1.12 1.12 0 0 1-.279-.225v-2.65c.115-.061.252-.123.381-.177a1.181 1.181 0 0 1 .326.313V5.56a3.038 3.038 0 0 0 .654.585h.02c.354-.265.633-.463 1.041-.714l-.054-.088a2.787 2.787 0 0 1-.265.116.8.8 0 0 1-.265-.2V2.47a1.77 1.77 0 0 0-.7-.714h-.02a4.245 4.245 0 0 0-1.129.687 1.67 1.67 0 0 0-.687-.687h-.02a4.054 4.054 0 0 0-1.116.679 2.554 2.554 0 0 0-.627-.679h-.02a5.85 5.85 0 0 0-1.123.769l.068.081c.088-.061.2-.122.291-.177a2.294 2.294 0 0 1 .279.291v2.564c-.081.061-.15.116-.225.17v.02a3.863 3.863 0 0 0 .769.667h.02a8.956 8.956 0 0 1 1-.647M7.639 5.423l-.054-.088a4.376 4.376 0 0 0-.306.136 1.209 1.209 0 0 1-.232-.162V2.438a2.391 2.391 0 0 0-.627-.69H6.4a5.857 5.857 0 0 0-1.123.769l.068.081a3.331 3.331 0 0 1 .291-.177 2.26 2.26 0 0 1 .279.291v2.511a2.578 2.578 0 0 1-.225.177v.02a3.381 3.381 0 0 0 .831.715h.02c.374-.265.66-.456 1.1-.714m22.6.026-.054-.088c-.108.048-.2.081-.291.122a.886.886 0 0 1-.17-.122V2.6c.116-.061.252-.122.381-.177a1.186 1.186 0 0 1 .327.313V5.55a3.029 3.029 0 0 0 .653.585h.02a10.264 10.264 0 0 1 1.041-.714l-.054-.089a2.817 2.817 0 0 1-.265.116.8.8 0 0 1-.265-.2V2.461a1.772 1.772 0 0 0-.7-.714h-.02a4.064 4.064 0 0 0-1.117.68 2.564 2.564 0 0 0-.626-.68h-.02a5.873 5.873 0 0 0-1.123.769l.068.081a3.3 3.3 0 0 1 .291-.177 2.258 2.258 0 0 1 .279.291v2.565a2.382 2.382 0 0 1-.225.17v.02a3.881 3.881 0 0 0 .769.667h.02a9.843 9.843 0 0 1 1.082-.687M16.754 2.338a2.744 2.744 0 0 0-.654-.585h-.017c-.395.238-.64.429-1.041.714l.054.089c.081-.048.162-.089.238-.135a1.408 1.408 0 0 1 .291.211v2.8a2.407 2.407 0 0 0 .777.7h.02c.326-.238.687-.483 1.035-.694a2.89 2.89 0 0 0 .633.692h.02c.354-.259.749-.544 1.082-.756l-.054-.088c-.108.048-.2.095-.306.143a1.427 1.427 0 0 1-.238-.211V2.6c.081-.061.143-.116.225-.17v-.02a5.857 5.857 0 0 0-.771-.665h-.02c-.408.238-.688.421-1.082.694L17 2.53l.265-.143a1.139 1.139 0 0 1 .2.135v2.757c-.135.054-.259.108-.381.162a1.515 1.515 0 0 1-.326-.265zM40.087 5.42l-.054-.088c-.115.048-.211.088-.306.136a1.2 1.2 0 0 1-.231-.162V2.435a2.39 2.39 0 0 0-.625-.688h-.02a5.862 5.862 0 0 0-1.123.769l.072.084a3.375 3.375 0 0 1 .291-.177 2.259 2.259 0 0 1 .279.291v2.509a2.579 2.579 0 0 1-.225.177v.02a3.371 3.371 0 0 0 .83.714h.02a12.3 12.3 0 0 1 1.1-.714m-30.5.026-.054-.088c-.108.048-.2.081-.291.122a.886.886 0 0 1-.17-.122V2.6c.116-.061.252-.122.381-.177a1.186 1.186 0 0 1 .327.313V5.55a3.029 3.029 0 0 0 .654.585h.02a10.264 10.264 0 0 1 1.038-.714l-.054-.089a2.817 2.817 0 0 1-.265.116.8.8 0 0 1-.265-.2V2.461a1.772 1.772 0 0 0-.7-.714h-.021a4.062 4.062 0 0 0-1.116.68 2.56 2.56 0 0 0-.626-.68h-.02a5.862 5.862 0 0 0-1.123.769l.068.081a3.331 3.331 0 0 1 .291-.177 2.26 2.26 0 0 1 .278.291v2.565a2.452 2.452 0 0 1-.225.17v.02a3.872 3.872 0 0 0 .769.667h.02a10.5 10.5 0 0 1 1.082-.687m37.378-1.008v-.21l1.7-.912V3.29a14.988 14.988 0 0 1-.986-1.552h-.019a12.735 12.735 0 0 1-1.844.626 5.912 5.912 0 0 1 .054.9V4.95a8.236 8.236 0 0 0 1.15 1.184h.034a18.623 18.623 0 0 1 1.6-.951l-.081-.122c-.259.122-.47.231-.68.326a6.8 6.8 0 0 1-.932-.945M27.165 6.135h.02c.354-.259.749-.544 1.082-.756l-.054-.088c-.108.048-.2.095-.306.143a1.427 1.427 0 0 1-.238-.211V3.1a2.919 2.919 0 0 1 .054-.756 5.391 5.391 0 0 1-1.47-.606h-.02a6.613 6.613 0 0 1-1.49 1.3v.026a2.092 2.092 0 0 0 1.057.666 8.939 8.939 0 0 1-1.035.421 4.653 4.653 0 0 1 .047.679v.68a2.2 2.2 0 0 0 .721.639h.02c.32-.231.667-.463 1.007-.679a2.811 2.811 0 0 0 .606.667m22.843.02a5.689 5.689 0 0 1 1.715-.8 2.047 2.047 0 0 1-.048-.49v-1.1l-1.056-.46h-.026l-.308.34-.32-.143V2.436a1.48 1.48 0 0 0 1.082.463 1.259 1.259 0 0 0 .231-.026 1.8 1.8 0 0 0 .49-1.118.462.462 0 0 0-.135 0 .966.966 0 0 1-.026.231.679.679 0 0 1-.259.054 1.06 1.06 0 0 1-.729-.313h-.02a5.5 5.5 0 0 1-1.715.748 3.031 3.031 0 0 1 .048.6v1.007l.986.449h.026l.312-.347.374.162v1.061a1.853 1.853 0 0 0-1.211-.42 1.259 1.259 0 0 0-.231.026 1.814 1.814 0 0 0-.49 1.123.459.459 0 0 0 .135 0 .981.981 0 0 1 .026-.231.678.678 0 0 1 .259-.054 1.231 1.231 0 0 1 .864.313H50zm-29.606 0a5.689 5.689 0 0 1 1.715-.8 2.048 2.048 0 0 1-.048-.49v-1.1l-1.055-.463h-.026l-.306.34-.32-.143V2.436a1.48 1.48 0 0 0 1.081.463 1.259 1.259 0 0 0 .231-.026 1.8 1.8 0 0 0 .49-1.117.462.462 0 0 0-.135 0 .966.966 0 0 1-.03.231.679.679 0 0 1-.259.054 1.058 1.058 0 0 1-.729-.313H21a5.5 5.5 0 0 1-1.715.748 3.012 3.012 0 0 1 .047.6v1.01l.984.448h.026l.313-.349.374.162v1.06a1.773 1.773 0 0 0-1.153-.421 1.259 1.259 0 0 0-.231.026 1.815 1.815 0 0 0-.49 1.123.462.462 0 0 0 .135 0 .966.966 0 0 1 .026-.231.677.677 0 0 1 .259-.054 1.188 1.188 0 0 1 .81.313h.015zm14.71-1.144-.007-.007a1.49 1.49 0 0 0 .061-.6V2.435a3.591 3.591 0 0 0-.061-.667l.143-.061a4 4 0 0 1 .054.667v1.932c-.007.463-.041.558-.191.708m-20.76.918-.136.088a2.614 2.614 0 0 1-.544-.633v-2.9c-1.4-.8-1.559-.884-1.7-.945l-.034-.2h.007L13.8 2.429v2.9a2.732 2.732 0 0 0 .55.606m21.8-4.076c0-.32.007-.429.143-.565.061.007.191.026.265.034v3.841a2.181 2.181 0 0 1-.6.081 2.429 2.429 0 0 1-.844-.143c.381-.15.777-.32 1.082-.47a4.834 4.834 0 0 1-.048-.667zm-13.31.36c0-.374-.02-.68-.034-.844l.162-.116h.006v3.763l-.123.1h-.012zM1.647 1.1a1.62 1.62 0 0 0-.43 1.266v1.716A2.066 2.066 0 0 1 .647 5.8H.64a2.185 2.185 0 0 0 .45-1.677V2.4a1.481 1.481 0 0 1 .55-1.3zm2.912 4.832-.135.088a2.753 2.753 0 0 1-.624-.564V1.832a3.742 3.742 0 0 0-.061-.777L3.9.94a6.61 6.61 0 0 1 .034.83V5.4a2.582 2.582 0 0 0 .626.531M1.706.763l.007.007a.882.882 0 0 1-.51.2C1 .967.835.872.659.872a.594.594 0 0 0-.429.162.5.5 0 0 0-.108.143H.114A.511.511 0 0 1 .25.925.629.629 0 0 1 .7.763c.192 0 .381.095.586.095a.993.993 0 0 0 .419-.095M5.856.682a6.044 6.044 0 0 0 .538.6l-.108.068a4.625 4.625 0 0 1-.524-.6zM38.4.675a7.232 7.232 0 0 0 .544.606l-.108.068A5.374 5.374 0 0 1 38.3.743zM33.347 1.8a1.016 1.016 0 0 1 .259-.509 1.522 1.522 0 0 1 1.122-.37c.777 0 1.7.238 2.307.238a.851.851 0 0 0 .783-.51l.02.007a.887.887 0 0 1-.838.612c-.606 0-1.517-.238-2.306-.238a1.446 1.446 0 0 0-1.082.368 1.066 1.066 0 0 0-.259.4h-.007zM23.944.552l-.034-.02c-.51.32-.912.6-1.2.823a4.048 4.048 0 0 1 .034.524 5.484 5.484 0 0 1-.368.694l.02.026h.347v2.56c-.081.061-.143.108-.225.162v.02a4.779 4.779 0 0 0 1.041.83h.02a7.909 7.909 0 0 1 1.089-.688L24.61 5.4a2.591 2.591 0 0 0-.238.108 4.018 4.018 0 0 1-.512-.319V2.606h.048a5.832 5.832 0 0 1 .633.026 3.5 3.5 0 0 0 .525-.824l-.02-.02a5.749 5.749 0 0 1-.8.047h-.383a10.455 10.455 0 0 1 .079-1.287m-9.733 5.587h.02c.354-.259.749-.524 1.082-.741l-.054-.09c-.108.048-.2.095-.306.143a1.454 1.454 0 0 1-.238-.225V3.035c0-.469.02-.7.034-.884A15.471 15.471 0 0 1 11.8.129l-.034.007a6.616 6.616 0 0 0 .15 1.463 7.5 7.5 0 0 1 .9.483c-.34.17-.721.341-1.082.49a7.561 7.561 0 0 1 .034.9v1.96a2.4 2.4 0 0 0 .777.7h.02c.32-.231.679-.469 1.028-.687a2.707 2.707 0 0 0 .625.694M6.276 1.465H6.3c.326-.225.544-.381.83-.612V.832A8.746 8.746 0 0 0 6.5.116h-.02c-.264.19-.543.384-.836.626v.02a4.935 4.935 0 0 0 .633.7m32.533 0h.02c.326-.225.544-.381.83-.612V.831a8.748 8.748 0 0 0-.626-.714h-.02c-.265.191-.544.381-.837.626v.02a5.4 5.4 0 0 0 .633.7M2.725 5.568l.007-.02V3.293h.986V5.5a3.347 3.347 0 0 0 .7.633h.02a12.123 12.123 0 0 1 1.177-.777l-.054-.1c-.116.048-.211.1-.313.143a.916.916 0 0 1-.34-.279V1.416A4.691 4.691 0 0 1 5.05.129l-.034-.02a9.291 9.291 0 0 0-1.381.939 2.906 2.906 0 0 1 .081.8v.687h-.98V1.354A3.1 3.1 0 0 1 2.9.136L2.871.129a1.873 1.873 0 0 0-.32 1.294v3.994a1.1 1.1 0 0 0-.537-.122 2.051 2.051 0 0 0-.741.143l-.007-.008c.871-.777.9-.912.9-1.475v-2.41A2.5 2.5 0 0 1 2.443.17L2.417.144a1.093 1.093 0 0 1-.55.162C1.6.306 1.241.172.922.172A.88.88 0 0 0 .3.41a.826.826 0 0 0-.24.575 1.156 1.156 0 0 0 .054.347h.02a.5.5 0 0 1 .137-.226.507.507 0 0 1 .37-.142c.211 0 .354.088.55.088a1.117 1.117 0 0 0 .66-.278l.007.007c-.8.839-.83.987-.83 1.633v.116A3.359 3.359 0 0 1 .66 2.5a8.245 8.245 0 0 0-.66.83l.02.02a3.949 3.949 0 0 1 .655-.05h.353v1.1a2.232 2.232 0 0 1-.667 1.695l.026.034a2.237 2.237 0 0 1 .891-.2.777.777 0 0 1 .565.2h.021a4.025 4.025 0 0 1 .858-.57M34.03 3.388a2.123 2.123 0 0 1 .654-1.525l-.026-.034a2.579 2.579 0 0 0-1.035.639 1.962 1.962 0 0 0-.565 1.381 2.159 2.159 0 0 0 .653 1.592 2.6 2.6 0 0 0 1.9.729 2.378 2.378 0 0 0 1.747-.68 2.043 2.043 0 0 0 .577-1.39h-.048a2.163 2.163 0 0 1-1.15 1V1.34c.135.007.211.007.252.007.518 0 .912-.326 1.116-1.326L38.056 0a.918.918 0 0 1-.823.354c-.6 0-1.579-.238-2.307-.238a1.91 1.91 0 0 0-1.376.5 1.129 1.129 0 0 0-.346.845 1.438 1.438 0 0 0 .116.55h.026a1.123 1.123 0 0 1 .291-.544 1.392 1.392 0 0 1 1.036-.367 10.312 10.312 0 0 1 1.463.15c-.368.135-.837.327-1.143.47a3.673 3.673 0 0 1 .068.756v2.056c0 .279-.007.4-.088.5a1.484 1.484 0 0 1-.395-.265 1.867 1.867 0 0 1-.55-1.374" style="fill:#fff"/>
                        </g>
                    </g>
                </g>
            </g>
        </g>
    </g>
</svg>
