<svg xmlns="http://www.w3.org/2000/svg" width="76.609" height="22.032" viewBox="0 0 76.609 22.032">
    <defs>
        <style>
            .cls-3{fill:#00b1cd}
        </style>
    </defs>
    <g id="Group_9431" data-name="Group 9431" transform="translate(1973.999 -11708.951)">
        <path id="Path_206" data-name="Path 206" d="M-549.113 243.253v-2.534h2.535v2.534zm3 0v-2.534h2.534v2.534zm0 3v-2.534h2.534v2.532zm0 2.976v-2.535h2.534v2.535zm0 3v-2.534h2.534v2.534zm0 3v-2.539h2.534v2.534zm2.975-11.968v-2.534h2.534v2.534zm3.945-.022V240.7h2.534v2.534zm0 2.976v-2.534h2.534v2.519zm0 3v-2.534h2.534v2.519zm0 3v-2.534h2.534v2.519zm0 2.976v-2.534h2.534v2.534zm3-11.946V240.7h2.534v2.534zm0 5.973v-2.534h2.534v2.516zm0 5.973v-2.534h2.534v2.534zm2.975-11.946V240.7h2.534v2.534zm0 5.973v-2.534h2.534v2.516zm0 5.973v-2.534h2.534v2.534zm3-11.946V240.7h2.535v2.534zm0 11.946v-2.534h2.535v2.534zm4.165-11.924 2.534-2.534v2.534zm0 3v-2.534h2.534v2.526zm0 2.976V246.7h2.534v2.535zm0 3V249.7h2.534v2.534zm2.534 3-2.534-2.534h2.534zm.441-11.968v-2.534h2.534v2.534zm0 11.968V252.7h2.534v2.534zm3-11.968v-2.534h2.534v2.534zm0 11.968V252.7h2.534v2.534zm3-14.5 2.513 2.534h-2.513zm0 5.532v-2.534h2.513v2.522zm0 5.973V249.7h2.513v2.534zm2.513.463-2.513 2.534V252.7zm1.653-9.433v-2.548h2.534v2.534zm0 3v-2.534h2.534v2.521zm0 3v-2.535h2.534v2.521zm0 2.975V249.7h2.534v2.534zm0 3V252.7h2.534v2.534zm3-5.972v-2.535h2.534v2.52zm3 0v-2.535h2.512v2.52zm2.976-6v-2.534h2.534v2.534zm0 3v-2.551h2.534v2.52zm0 3v-2.535h2.534v2.52zm0 2.975V249.7h2.534v2.534zm0 3V252.7h2.534v2.534z" transform="translate(-1395.978 11469.015)" style="fill:#fff"/>
        <g id="Make_life_simple" data-name="Make life simple" transform="translate(-1945.158 11727.153)">
            <g id="Group_40" data-name="Group 40" style="isolation:isolate">
                <path id="Path_207" data-name="Path 207" class="cls-3" d="m-549.15 291.542-.156-.567h.94l.977 1.446.083.407h.021l.068-.305 1.087-1.548h.671v3.825h-.769v-2.174l.26-1-.031-.011-.363.761-.738 1.093h-.468l-.728-1.109-.333-.825-.031.011.187.98v2.274h-.676z" transform="translate(549.306 -290.974)"/>
                <path id="Path_208" data-name="Path 208" class="cls-3" d="m-536.2 294.15 1.1-3.178h.967l1.149 3.149v.675h-.769v-.61l-.073-.2.1-.188-.01-.011-.172.089h-1.456l-.172-.089-.01.011.125.224-.073.23v.541h-.707zm1.154-.825h.842l.333.145.01-.011-.269-.375-.416-1.226-.073-.461h-.026l-.073.461-.411 1.243-.26.358.01.011z" transform="translate(540.748 -290.972)"/>
                <path id="Path_209" data-name="Path 209" class="cls-3" d="M-524.958 290.975h.769v3.825h-.769zm2.1 0h.863l-1.16 1.633-.52.139v.022l.723.192 1.074 1.164v.675h-.769v-.4l-1.47-1.621z" transform="translate(533.405 -290.974)"/>
                <path id="Path_210" data-name="Path 210" class="cls-3" d="M-514.393 294.231v-2.689l-.156-.567h2.516v.567h-1.539l-.269-.144-.01.011.229.4v.45l-.229.4.01.011.275-.145h1.326v.568h-1.331l-.268-.145-.01.01.229.4v.6l-.229.4.01.011.275-.145h1.6v.568h-2.584z" transform="translate(526.607 -290.974)"/>
                <path id="Path_211" data-name="Path 211" class="cls-3" d="M-501.342 294.236v-3.261h.769v2.988l-.281.455.01.011.322-.2h1.581v.568h-2.56z" transform="translate(518.084 -290.974)"/>
                <path id="Path_212" data-name="Path 212" class="cls-3" d="M-492.414 290.975h.769v3.825h-.769z" transform="translate(512.151 -290.974)"/>
                <path id="Path_213" data-name="Path 213" class="cls-3" d="m-487.613 291.542-.156-.567h2.516v.567h-1.539l-.269-.144-.01.011.229.4v.5l-.229.4.01.011.269-.145h1.32v.567h-1.32l-.269-.144-.01.011.229.4v1.391h-.769z" transform="translate(509.118 -290.974)"/>
                <path id="Path_214" data-name="Path 214" class="cls-3" d="M-478.7 294.231v-2.689l-.156-.567h2.517v.567h-1.539l-.269-.144-.01.011.229.4v.45l-.229.4.01.011.275-.145h1.326v.568h-1.331l-.269-.145-.01.01.229.4v.6l-.229.4.01.011.275-.145h1.6v.568h-2.584z" transform="translate(503.296 -290.974)"/>
                <path id="Path_215" data-name="Path 215" class="cls-3" d="M-465.965 294.235h1.745l.269.145.01-.011-.229-.4v-.407l.281-.455-.01-.011-.349.214-1.362-.343a1.314 1.314 0 0 1-.426-.883 1.349 1.349 0 0 1 .431-.911l.192-.2h1.856v.563h-1.638l-.269-.145-.01.011.229.4v.22l-.281.455.01.011.333-.209 1.326.322a1.566 1.566 0 0 1 .478 1.023 1.485 1.485 0 0 1-.448 1.012l-.156.161h-1.986z" transform="translate(494.923 -290.972)"/>
                <path id="Path_216" data-name="Path 216" class="cls-3" d="M-456.245 290.975h.77v3.825h-.77z" transform="translate(488.53 -290.974)"/>
                <path id="Path_217" data-name="Path 217" class="cls-3" d="m-451.443 291.542-.156-.567h.94l.977 1.446.083.407h.021l.067-.305 1.087-1.548h.671v3.825h-.769v-2.174l.26-1-.031-.011-.364.761-.738 1.093h-.468l-.728-1.109-.333-.825-.031.011.187.98v2.274h-.676z" transform="translate(485.495 -290.974)"/>
                <path id="Path_218" data-name="Path 218" class="cls-3" d="m-437.928 291.542-.156-.567h2.391l.177.182a1.459 1.459 0 0 1 .452 1.007 1.338 1.338 0 0 1-.437.991l-.2.209h-.884l-.551-.567h1.185l.268.145.01-.011-.229-.4v-.716l.229-.4-.01-.011-.268.144h-1.159l-.322-.2-.01.011.281.455v2.986h-.769z" transform="translate(476.669 -290.974)"/>
                <path id="Path_219" data-name="Path 219" class="cls-3" d="M-427.692 294.236v-3.261h.77v2.988l-.281.455.01.011.322-.2h1.581v.568h-2.558z" transform="translate(469.985 -290.974)"/>
                <path id="Path_220" data-name="Path 220" class="cls-3" d="M-418.975 294.231v-2.689l-.156-.567h2.517v.567h-1.539l-.269-.144-.01.011.229.4v.45l-.229.4.01.011.276-.145h1.326v.568h-1.331l-.268-.145-.01.01.229.4v.6l-.229.4.01.011.276-.145h1.6v.568h-2.584z" transform="translate(464.291 -290.974)"/>
            </g>
        </g>
        <path id="Path_221" data-name="Path 221" class="cls-3" d="m-631.213 245.093-1.226 1.7.063.161h2.7v3.01c0 1.218-.126 1.795-1.761 3.877l.093.183h4.21l1.8-1.208v-5.861h2.417v5.221l1.894 1.857h.179l2.234-1.505v-.183l-1.437-1.1V241.7l.334-2.6-.156-.1-3.055 1.731v4.358h-2.411v-6.017h-.629v12.942h-1.323l-2.129.671-.063-.095c2.388-2.38 2.451-2.692 2.451-3.846v-9.584l-.156-.09-1.164.128-1.666-.128a2.132 2.132 0 0 0-1.666.549 1.917 1.917 0 0 0-.537 1.408 1.958 1.958 0 0 0 .282.994h.219a.868.868 0 0 1 .189-.641c.226-.236.451-.3 1.044-.3h1.164l1.54-.865.063.064c-1.892 2.6-1.955 2.789-1.955 4.578v.224zm16.891-1.7-.126-.183a5.744 5.744 0 0 0-2.21 1.439 5.229 5.229 0 0 0-1.477 3.684 5.955 5.955 0 0 0 1.572 4.069 5.784 5.784 0 0 0 4.313 1.7 6.049 6.049 0 0 0 4.341-1.667 4.649 4.649 0 0 0 1.351-3.113l-.221-.031a4.517 4.517 0 0 1-2.388 2.115V241.8h.126c1.258 0 2.2-.671 2.609-3.236l-.216-.06c-.537.769-.879.93-2.043.93-1.7 0-3.646-.418-4.872-.418a4.432 4.432 0 0 0-3.333 1.058 2.7 2.7 0 0 0-.8 1.945 4.037 4.037 0 0 0 .252 1.313h.282a1.873 1.873 0 0 1 .507-1.185c.473-.482 1.132-.769 2.768-.769a19.006 19.006 0 0 1 2.516.256v.064l-2.228 1.225v7.528l-.5.671h-.036a3.011 3.011 0 0 1-.473-.416 5.064 5.064 0 0 1-1.288-3.525 5.319 5.319 0 0 1 1.573-3.787zm3.08-.9.817-.769.629.033v9.866a5.446 5.446 0 0 1-1.635.224 4.952 4.952 0 0 1-2.173-.448v-.058l2.358-1.308z" transform="translate(-1341.56 11470.45)"/>
    </g>
</svg>
