<svg xmlns="http://www.w3.org/2000/svg" width="70.804" height="22.032" viewBox="0 0 70.804 22.032">
    <defs>
        <style>
            .cls-4{fill:#fff}.cls-2{fill:#005086}.cls-3{fill:#0e62af}.cls-6{fill:#ee4427}
        </style>
    </defs>
    <g id="HT_Auto" transform="translate(0 .04)">
        <circle id="Ellipse_433" data-name="Ellipse 433" cx="4.346" cy="4.346" r="4.346" transform="translate(59.308 3.065)" style="stroke:#005086;stroke-miterlimit:10;fill:#fff"/>
        <path id="Path_3685" data-name="Path 3685" class="cls-2" d="m-176.5 146.855-.053-.1-1.648.914-.457-.253 1.3-1.066.671-.069-.01-.108-.507.05.394-.321-.07-.086-.527.428-1.679.176.146-.5 1.816-.527-.031-.105-1.747.5.5-1.758-.105-.031-.527 1.816-.5.146.176-1.679.428-.527-.086-.07-.322.4.051-.505-.108-.012-.067.681-1.066 1.308-.252-.457.914-1.657-.1-.053-.879 1.6-.879-1.6-.1.053.905 1.648-.253.457-1.068-1.308-.067-.672-.11.012.05.505-.321-.394-.085.07.428.527.176 1.679-.508-.146-.523-1.821-.105.031.507 1.758-1.758-.505-.031.105 1.816.527.146.5-1.68-.176-.527-.426-.07.085.394.322-.492-.054-.01.108.671.069 1.307 1.066-.448.248-1.655-.912-.053.1 1.594.879-1.594.879.053.1 1.655-.911.457.25-1.306 1.069-.672.066.012.111.507-.051-.4.322.07.083.527-.426 1.679-.176-.146.5-1.815.527.029.105 1.758-.505-.52 1.758.105.031.527-1.816.5-.146-.176 1.679-.429.527.086.07.321-.4-.05.507.108.012.069-.671 1.066-1.308.252.457-.914 1.655.1.053.879-1.594.879 1.594.094-.053-.914-1.655.253-.457 1.068 1.308.067.671.11-.01-.051-.507.322.394.083-.07-.425-.527-.176-1.676.5.146.527 1.815.105-.029-.5-1.749 1.758.505.031-.105-1.813-.527-.146-.5 1.679.176.526.428.07-.086-.393-.322.505.051.01-.108-.671-.069-1.305-1.068.457-.258 1.654.914.053-.1-1.6-.879zm-1.055-.482-1.213.99-.192-.105a1.882 1.882 0 0 0-.214-.517l.062-.211zm-1.677 2.556h-.073l.051-.07zm-.419.409-.078-.022.07-.053zm.4-2.723-.044-.06h.073zm-.407-.425-.07-.051.078-.022zm.743 1.79.056.048-.07.038a.668.668 0 0 1 .015-.086m-.009-.576.07.038-.059.045a.207.207 0 0 0-.012-.083m-.13-1.449-.139.476-.189.019q-.083-.092-.176-.176l.019-.189zm-.422-1.506-.158 1.558-.211.06a1.886 1.886 0 0 0-.517-.215l-.105-.19zm-1.025 1.372-.085-.013.047-.057zm-.328-.615.233.439-.122.146h-.237l-.12-.146zm-.293.538.047.059-.085.012zm-1.3 3.1.051.07h-.075zm-.022-2.311h.075l-.053.07zm.42-.42.078.023c-.025.016-.047.034-.07.051zm-.732 1.364-.059-.047.07-.04a.221.221 0 0 1-.012.086m.012.586-.07-.04.059-.045a.214.214 0 0 0 .012.085m.732 1.205a.895.895 0 0 0 .07.051l-.078.022zm-.176-4.833.992 1.213-.105.19a1.94 1.94 0 0 0-.519.215l-.211-.062zm-.422 1.5.476.136.019.192a1.6 1.6 0 0 0-.167.176l-.19-.019zm-1.516.431 1.557.157.06.211a1.992 1.992 0 0 0-.215.516l-.19.105zm.765 1.362.439-.242.146.122v.239l-.146.12zm-.766 1.362 1.213-.984.19.105a1.922 1.922 0 0 0 .215.516l-.062.211zm1.5.422.146-.477.189-.019a1.578 1.578 0 0 0 .176.167l-.019.192zm.422 1.5.157-1.557.211-.06a1.9 1.9 0 0 0 .527.214l.105.192zm1.025-1.372.086.012-.048.059zm.352.608-.239-.439.12-.146h.237l.122.146zm.293-.538-.045-.059.085-.012zm1.068 1.3-.992-1.213.105-.192a1.9 1.9 0 0 0 .517-.214l.211.062zm.413-1.506-.479-.139-.019-.19a1.982 1.982 0 0 0 .176-.176l.19.018zm1.5-.422-1.557-.157-.062-.211a1.918 1.918 0 0 0 .214-.527l.192-.105zm-1.2-1.123-.146-.12v-.237l.146-.122.439.242z" transform="translate(244.501 -140.48)"/>
        <g id="Drive_your_passion" data-name="Drive your passion" transform="translate(0 18.784)">
            <path id="Path_6247" data-name="Path 6247" class="cls-3" d="m-590.13 255.016.732-2.333h1.044l-.536 1.709h1.482a.439.439 0 0 0 .463-.308l.417-1.331a.315.315 0 0 0 .023-.108c.015-.1-.091-.186-.234-.2h-2.578l.195-.628h2.719c.688 0 1.025.2 1.025.567a.974.974 0 0 1-.041.25l-.5 1.561c-.091.5-.747.861-1.485.819z" transform="translate(590.13 -251.813)"/>
            <path id="Path_6248" data-name="Path 6248" class="cls-3" d="m-555.284 254.973.318-1.046a.241.241 0 0 0 .015-.07c0-.057-.056-.075-.195-.075h-1.522l-.368 1.191h-1.055l.732-2.343h1.057l-.195.618h1.449c.2 0 .249-.034.293-.166l.165-.52a.258.258 0 0 0 .015-.075c0-.076-.061-.094-.214-.094h-2.49l.193-.624h2.988c.48 0 .684.119.684.354a.758.758 0 0 1-.035.2l-.217.694a.715.715 0 0 1-.722.466c.293.015.527.082.527.28a.253.253 0 0 1-.015.1l-.338 1.11z" transform="translate(562.783 -251.77)"/>
            <path id="Path_6249" data-name="Path 6249" class="cls-3" d="m-526.46 255.007.993-3.2h1.056l-1 3.2z" transform="translate(535.786 -251.804)"/>
            <path id="Path_6250" data-name="Path 6250" class="cls-3" d="m-508.453 255.007-.457-3.2h1.091l.264 2.332 1.787-2.332h1.047l-2.541 3.2z" transform="translate(520.806 -251.804)"/>
            <path id="Path_6251" data-name="Path 6251" class="cls-3" d="m-483.86 255.007.732-2.344h1.091l-.168.52h1.737l-.158.508h-1.737l-.207.671h2.4l-.193.639zm.8-2.573.195-.624h3.474l-.195.624z" transform="translate(499.425 -251.804)"/>
            <path id="Path_6252" data-name="Path 6252" class="cls-3" d="m-436.373 255.007.412-1.318-.939-1.879h1.106l.586 1.261 1.361-1.261h1.056l-2.1 1.879-.41 1.318z" transform="translate(459.343 -251.804)"/>
            <path id="Path_6253" data-name="Path 6253" class="cls-3" d="M-411.744 254.982c-.472 0-.666-.114-.666-.346a.642.642 0 0 1 .041-.214l.625-2.086c.119-.376.376-.557.973-.557h2.344c.467 0 .661.113.661.349a.775.775 0 0 1-.029.208l-.644 2.086c-.12.378-.382.56-.974.56zm2.828-2.39a.319.319 0 0 0 0-.075c0-.081-.069-.108-.243-.108h-1.318c-.18 0-.249.041-.293.183l-.5 1.591a.431.431 0 0 0 0 .062c0 .07.056.1.2.1h1.318c.223 0 .293-.047.332-.161z" transform="translate(438.44 -251.779)"/>
            <path id="Path_6254" data-name="Path 6254" class="cls-3" d="M-380.014 255.016c-.477 0-.666-.114-.666-.352a.569.569 0 0 1 .035-.208l.819-2.636h1.057l-.744 2.389a.257.257 0 0 0-.021.086c0 .069.063.083.208.083h1.39c.18 0 .258-.029.293-.17l.744-2.389h1.015l-.813 2.636c-.116.378-.382.559-.973.559z" transform="translate(411.358 -251.813)"/>
            <path id="Path_6255" data-name="Path 6255" class="cls-3" d="m-346.789 254.973.321-1.046a.279.279 0 0 0 0-.07c0-.057-.057-.075-.2-.075h-1.52l-.368 1.191h-1.058l.732-2.343h1.056l-.187.618h1.447c.2 0 .249-.034.293-.166l.167-.52a.319.319 0 0 0 0-.075c0-.076-.063-.094-.217-.094h-2.49l.193-.624h2.988c.482 0 .681.119.681.354a.573.573 0 0 1-.035.2l-.214.694a.718.718 0 0 1-.724.467c.293.013.53.081.53.278a.28.28 0 0 1-.015.1l-.343 1.11z" transform="translate(384.839 -251.77)"/>
            <path id="Path_6256" data-name="Path 6256" class="cls-3" d="m-303.535 253.942-.319 1.025h-1.056l.732-2.343h1.056l-.231.732h1.449c.173 0 .223-.038.271-.183l.2-.63a.235.235 0 0 0 0-.064c0-.067-.056-.085-.189-.085h-2.506l.193-.624h2.947c.472 0 .661.113.661.349a.866.866 0 0 1-.015.2l-.327 1.053c-.119.378-.376.557-.974.557z" transform="translate(346.686 -251.77)"/>
            <path id="Path_6257" data-name="Path 6257" class="cls-3" d="m-276.249 255.007-.045-.5h-1.7l-.363.5h-1.025l2.446-3.2h1.384l.362 3.2zm-.228-2.557-1.138 1.529h1.286z" transform="translate(324.895 -251.804)"/>
            <path id="Path_6258" data-name="Path 6258" class="cls-3" d="m-247.47 255.016.195-.624h2.51c.166 0 .234-.038.27-.155l.139-.439a.1.1 0 0 0 0-.051c0-.063-.05-.086-.182-.086h-1.854c-.376 0-.543-.117-.543-.315a.5.5 0 0 1 .023-.138l.271-.83c.119-.376.371-.557.983-.557h2.915l-.187.608h-2.49c-.146 0-.2.04-.237.146l-.13.42a.156.156 0 0 0-.015.062c0 .051.04.07.146.07h1.882c.382 0 .551.119.551.321a.455.455 0 0 1-.023.132l-.27.879c-.119.378-.376.559-.973.559z" transform="translate(297.659 -251.813)"/>
            <path id="Path_6259" data-name="Path 6259" class="cls-3" d="m-216.83 255.016.2-.624h2.513c.168 0 .237-.038.272-.155l.139-.439a.146.146 0 0 0 0-.051c0-.063-.05-.086-.18-.086h-1.856c-.376 0-.54-.117-.54-.315a.5.5 0 0 1 .019-.138l.258-.83c.119-.376.368-.557.978-.557h2.929l-.189.608h-2.5c-.146 0-.2.04-.236.146l-.133.42a.427.427 0 0 0 0 .062c0 .051.044.07.146.07h1.882c.382 0 .551.119.551.321a.515.515 0 0 1-.021.132l-.293.879c-.119.378-.373.559-.973.559z" transform="translate(271.507 -251.813)"/>
            <path id="Path_6260" data-name="Path 6260" class="cls-3" d="m-185.89 255.007.993-3.2h1.056l-.993 3.2z" transform="translate(245.098 -251.804)"/>
            <path id="Path_6261" data-name="Path 6261" class="cls-3" d="M-171.875 254.982c-.472 0-.665-.114-.665-.346a.732.732 0 0 1 .04-.214l.649-2.086c.116-.376.374-.557.973-.557h2.343c.463 0 .659.113.659.349a.772.772 0 0 1-.034.208l-.649 2.086c-.116.378-.382.56-.973.56zm2.83-2.39a.317.317 0 0 0 0-.075c0-.081-.07-.108-.243-.108h-1.3c-.182 0-.252.041-.293.183l-.5 1.591a.218.218 0 0 0 0 .062c0 .07.056.1.2.1h1.318c.223 0 .293-.047.337-.161z" transform="translate(233.704 -251.779)"/>
            <path id="Path_6262" data-name="Path 6262" class="cls-3" d="m-138.169 255.007-1.778-2.1-.655 2.1h-.978l.993-3.2h1l1.544 1.9.586-1.9h.987l-.981 3.2z" transform="translate(207.278 -251.804)"/>
        </g>
        <path id="Path_3686" data-name="Path 3686" class="cls-2" d="M-168.5 157.277a2.682 2.682 0 0 1-2.676 2.688 2.683 2.683 0 0 1-2.68-2.683 2.683 2.683 0 0 1 2.68-2.682 2.682 2.682 0 0 1 2.682 2.682" transform="translate(234.83 -150.048)"/>
        <path id="Path_3687" data-name="Path 3687" class="cls-4" d="M-167.51 158.541a2.461 2.461 0 0 1-2.461 2.459 2.461 2.461 0 0 1-2.459-2.461 2.461 2.461 0 0 1 2.459-2.461 2.461 2.461 0 0 1 2.461 2.461" transform="translate(233.61 -151.311)"/>
        <path id="Path_3688" data-name="Path 3688" class="cls-3" d="M-167.251 161.213a.983.983 0 0 1 .138.256.65.65 0 0 1-.338.854.64.64 0 0 1-.283.053c-.146 0-.293-.038-.439-.035a1.481 1.481 0 0 0-.586.176 2.783 2.783 0 0 1-.832.278 1.061 1.061 0 0 1-.655-.075c-.236-.124-.387-.352-.606-.488a2.254 2.254 0 0 0 1.457 2.836 2.253 2.253 0 0 0 1.72-.145 2.253 2.253 0 0 0 1.113-1.32 2.254 2.254 0 0 0-.684-2.393" transform="translate(232.356 -155.69)"/>
        <path id="Path_3694" data-name="Path 3694" class="cls-4" d="M-158.428 169.466a.586.586 0 0 1-.586.586.586.586 0 0 1-.586-.586.586.586 0 0 1 .586-.586.586.586 0 0 1 .586.586" transform="translate(222.659 -162.237)"/>
        <path id="Path_3689" data-name="Path 3689" class="cls-2" d="M-156.433 157.856a.847.847 0 0 1 .176.7 3.141 3.141 0 0 0 .385-.844 2.279 2.279 0 0 0-.866-.176h-.2a1.257 1.257 0 0 1 .513.313" transform="translate(220.389 -152.558)"/>
        <path id="Path_3690" data-name="Path 3690" class="cls-2" d="M-166.822 164.623a.913.913 0 0 1 .034.274.718.718 0 0 1-.215.586c-.211.155-.527.082-.76.067-.122 0-.236-.013-.352-.013a.68.68 0 0 1 .034.52.68.68 0 0 1-.343.391.68.68 0 0 1-.911-.308.677.677 0 0 1-.067-.239 1.144 1.144 0 0 1-.269.063.832.832 0 0 1-.65-.209 1.708 1.708 0 0 0-.617-.324 2.253 2.253 0 0 0 1.806 2.613 2.251 2.251 0 0 0 2.622-1.806v-.007a2.242 2.242 0 0 0-.315-1.611" transform="translate(232.368 -158.601)"/>
        <path id="Path_3691" data-name="Path 3691" class="cls-3" d="M-150.948 176.949c-.176-.031-.259-.163-.378-.277a1 1 0 0 0-.325-.2 1.009 1.009 0 0 1-.369.384c.186.293.371.586.562.879a2.119 2.119 0 0 0 .747-.784.63.63 0 0 1-.234 0" transform="translate(216.189 -168.715)"/>
        <path id="Path_3692" data-name="Path 3692" class="cls-3" d="M-154.8 180.982a2.026 2.026 0 0 0 .352-.06c-.105-.33-.209-.659-.309-.992l-.1.018c.026.352.032.69.057 1.034" transform="translate(218.613 -171.668)"/>
        <path id="Path_3693" data-name="Path 3693" class="cls-3" d="M-161.835 179.644c-.127.187-.293.363-.432.538l-.243.293a2.067 2.067 0 0 0 .933.261c.009-.352.018-.691.02-1.037a1.06 1.06 0 0 1-.278-.059" transform="translate(225.143 -171.421)"/>
        <path id="Path_3695" data-name="Path 3695" class="cls-2" d="M-157.594 170.473a.413.413 0 0 1-.413.413.413.413 0 0 1-.413-.413.413.413 0 0 1 .413-.413.413.413 0 0 1 .413.413" transform="translate(221.652 -163.244)"/>
        <path id="Path_6263" data-name="Path 6263" d="m-588.905 129.512-1.185 1.611.06.154h2.612v2.856c0 1.156-.122 1.7-1.7 3.678l.089.174h4.072l1.737-1.148v-5.567h2.344v4.954l1.832 1.758h.173l2.16-1.428v-.173l-1.39-1.043v-9.047l.322-2.461-.146-.092-2.953 1.642v4.133h-2.332V123.8h-.608v12.28h-1.282l-2.059.637-.062-.089c2.31-2.259 2.37-2.554 2.37-3.648v-9.093l-.149-.087-1.125.122-1.611-.122a2.063 2.063 0 0 0-1.611.521 1.8 1.8 0 0 0-.52 1.336 1.82 1.82 0 0 0 .272.943h.212a.81.81 0 0 1 .182-.608c.22-.224.439-.281 1.009-.281h1.125l1.488-.82.062.06c-1.829 2.462-1.891 2.647-1.891 4.344v.215zm16.331-1.611-.122-.173a5.551 5.551 0 0 0-2.149 1.364 4.913 4.913 0 0 0-1.422 3.5 5.592 5.592 0 0 0 1.52 3.859 5.638 5.638 0 0 0 4.17 1.611 5.912 5.912 0 0 0 4.195-1.582 4.354 4.354 0 0 0 1.307-2.953l-.214-.029a4.34 4.34 0 0 1-2.311 2.002v-9.118h.122c1.216 0 2.128-.639 2.522-3.076l-.208-.057c-.521.732-.85.879-1.976.879-1.639 0-3.524-.4-4.709-.4a4.334 4.334 0 0 0-3.222 1 2.544 2.544 0 0 0-.775 1.845 3.785 3.785 0 0 0 .243 1.246h.272a1.758 1.758 0 0 1 .491-1.125c.457-.457 1.094-.732 2.676-.732a18.547 18.547 0 0 1 2.431.243v.075l-2.153 1.163v7.142l-.488.639h-.034a2.93 2.93 0 0 1-.457-.394 4.756 4.756 0 0 1-1.246-3.345 5 5 0 0 1 1.519-3.593zm2.978-.851.791-.732.608.031v9.361a5.343 5.343 0 0 1-1.58.212 4.845 4.845 0 0 1-2.1-.426v-.056l2.279-1.239z" transform="translate(590.096 -123.29)" style="fill:#0275bc"/>
        <path id="Union_2" data-name="Union 2" class="cls-6" d="M-402.926 138.369v-4l-1.055-.912 4.784-1.676v5.844c0 1.564.13 2.179 1.055 2.179a3.011 3.011 0 0 0 .949-.186v-5.343l-1.055-.912 4.784-1.674v9.362h.931v.293h-4.656V139.9c-1.23.893-2.285 1.638-3.34 1.638-1.671.018-2.397-.955-2.397-3.169zm11.6-.56v-5.283h-1.432v-.018l5.154-4.057v3.779h2.623v.293h-2.626v4.346c0 2.165.5 2.956 1.881 2.956a2.741 2.741 0 0 0 1.1-.2l.019.018a4.12 4.12 0 0 1-3.629 1.9c-2.216 0-3.09-1.3-3.09-3.723zm-18.578 3.539v-.293h1.526l-1.478-3.5h-4.281l-1.135 3.5h1.917v.293h-4.114v-.293h.763l5.919-13.475h.968l5.9 13.475h.855v.293zm-4.127-4.133h4.041l-2.283-5.4z" transform="translate(442.759 -126.986)"/>
        <path id="Path_7602" data-name="Path 7602" class="cls-6" d="M-197.168 139.671a7.146 7.146 0 0 1-7.152-7.137 7.144 7.144 0 0 1 7.143-7.143 7.143 7.143 0 0 1 7.136 7.143 7.151 7.151 0 0 1-7.136 7.143m0-11.489a4.346 4.346 0 0 0-4.346 4.346 4.346 4.346 0 0 0 4.346 4.346 4.344 4.344 0 0 0 4.344-4.346 4.35 4.35 0 0 0-4.344-4.346" transform="translate(260.829 -125.117)"/>
        <path id="Path_3684" data-name="Path 3684" class="cls-4" d="M-184.051 140.7a4.892 4.892 0 0 0-4.9 4.886v.01a4.894 4.894 0 0 0 4.892 4.893h.007a4.894 4.894 0 0 0 4.886-4.893 4.894 4.894 0 0 0-4.886-4.9m0 9.4a4.5 4.5 0 0 1-4.5-4.5 4.5 4.5 0 0 1 4.5-4.5 4.5 4.5 0 0 1 4.5 4.5 4.5 4.5 0 0 1-4.5 4.5" transform="translate(247.71 -138.184)"/>
    </g>
</svg>
