<svg xmlns="http://www.w3.org/2000/svg" width="62" height="22.032" viewBox="0 0 62 22.032">
    <defs>
        <style>
            .cls-1{fill:#f99d1c;fill-rule:evenodd}
        </style>
    </defs>
    <g id="Mint_logo" data-name="Mint logo" transform="translate(-.626 -.809)">
        <g id="Artboard-2" transform="translate(.626 .809)">
            <g id="Group-12">
                <g id="Group-11">
                    <g id="Group-10">
                        <g id="Group-9">
                            <g id="Group-8">
                                <g id="Group-7">
                                    <g id="Group-6">
                                        <g id="Group-5">
                                            <g id="Group-4">
                                                <g id="Group-3">
                                                    <g id="Group-2">
                                                        <g id="Group">
                                                            <path id="Fill-72" class="cls-1" d="M39.635 0a3.166 3.166 0 1 1-3.154 3.179A3.179 3.179 0 0 1 39.635 0" transform="translate(-9.526)"/>
                                                            <path id="Fill-74" class="cls-1" d="M7.79 24.5H0v-2.515h.579c.378 0 .51-.216.51-.565v-7.8c0-.351-.132-.564-.51-.564H0v-2.591h7.028v2.184a5.151 5.151 0 0 1 4.4-2.48c2.764 0 3.694 1.11 4.014 2.749a5.2 5.2 0 0 1 4.58-2.749c3.512 0 3.988 1.688 3.988 4.187v7.064c0 .349.157.565.59.565h.446V24.5h-7.657v-2.515h.21c.352 0 .508-.216.508-.565V15c0-1.156-.4-1.529-1.206-1.529-1.069 0-1.417.885-1.417 2.252v5.67c0 .376.161.592.512.592h.316V24.5H8.867v-2.515h.212c.346 0 .505-.216.505-.565V15c0-1.156-.4-1.529-1.207-1.529-1.068 0-1.416.885-1.416 2.252v5.67c0 .376.136.592.511.592h.318z" transform="translate(0 -2.655)"/>
                                                            <path id="Fill-76" class="cls-1" d="M36.439 13.728c0-.352-.131-.565-.509-.565h-.579V10.57h6.962V21.5c0 .375.134.591.509.591h.529v2.519h-8v-2.521h.579c.378 0 .509-.216.509-.564z" transform="translate(-9.231 -2.76)"/>
                                                            <path id="Fill-78" class="cls-1" d="M55.6 24.5h-7.788v-2.515h.578c.377 0 .513-.216.513-.565v-7.8c0-.351-.136-.564-.513-.564h-.578v-2.591h6.963v2.212a5.581 5.581 0 0 1 4.681-2.509c3.246 0 3.949 1.688 3.949 4.187v7.065c0 .349.13.565.563.565h.472V24.5h-7.764v-2.515H57c.346 0 .509-.216.509-.565V15c0-1.156-.427-1.529-1.2-1.529-.836 0-1.527.614-1.527 1.982v5.941a.526.526 0 0 0 .574.592h.244z" transform="translate(-12.484 -2.655)"/>
                                                            <path id="Fill-80" class="cls-1" d="m70.139 9.412 2.07-.08.248-3.2H77.7v3.28h2.485v2.633H77.7V18.4c0 1.66.322 2.2 2.145 2.2h.465v2.85a30.611 30.611 0 0 1-3.479.185c-3.326 0-5.005-1.032-5.005-3.807v-7.784h-1.687z" transform="translate(-18.314 -1.602)"/>
                                                        </g>
                                                    </g>
                                                </g>
                                            </g>
                                        </g>
                                    </g>
                                </g>
                            </g>
                        </g>
                    </g>
                </g>
            </g>
        </g>
    </g>
</svg>
