<svg xmlns="http://www.w3.org/2000/svg" width="75.54" height="22.032" viewBox="0 0 75.54 22.032">
    <defs>
        <style>
            .cls-2{fill:#fff}
        </style>
    </defs>
    <g id="Mint_lounge" data-name="Mint lounge" transform="translate(-4656.96 4977)">
        <circle id="Ellipse_6" data-name="Ellipse 6" cx="10.566" cy="10.566" r="10.566" transform="translate(4656.96 -4977)" style="fill:#f99d1c"/>
        <path id="Path_44" data-name="Path 44" class="cls-2" d="M206.932 102.47a.866.866 0 1 1-.862.869.866.866 0 0 1 .862-.869" transform="translate(4460.346 -5071.916)"/>
        <path id="Path_45" data-name="Path 45" class="cls-2" d="M167.589 117.716h-2.129v-.688h.158c.1 0 .138-.06.138-.154v-2.13c0-.1-.035-.154-.138-.154h-.158v-.709h1.913v.6a1.408 1.408 0 0 1 1.2-.677c.757 0 1.011.3 1.1.751a1.421 1.421 0 0 1 1.252-.751c.96 0 1.089.461 1.089 1.145v1.931c0 .094.044.154.161.154h.122v.688h-2.085v-.688h.064c.1 0 .14-.06.14-.154v-1.755c0-.316-.109-.419-.33-.419-.292 0-.388.243-.388.617v1.55c0 .1.045.162.142.162h.074v.688h-2.031v-.688h.058c.094 0 .138-.06.138-.154v-1.755c0-.316-.109-.419-.328-.419-.292 0-.388.243-.388.617v1.55c0 .1.038.162.14.162h.087z" transform="translate(4493.586 -5081.19)"/>
        <path id="Path_46" data-name="Path 46" class="cls-2" d="M205.108 115.1c0-.1-.036-.154-.14-.154h-.158v-.709h1.9v2.987c0 .1.036.161.14.161h.15v.688h-2.19v-.688h.158c.1 0 .14-.06.14-.154z" transform="translate(4461.377 -5081.55)"/>
        <path id="Path_47" data-name="Path 47" class="cls-2" d="M220.81 117.716h-2.13v-.688h.158c.1 0 .14-.06.14-.154v-2.13c0-.1-.036-.154-.14-.154h-.158v-.709h1.9v.606a1.526 1.526 0 0 1 1.279-.686c.889 0 1.08.461 1.08 1.145v1.931c0 .094.036.154.154.154h.129v.688H221.1v-.688h.087c.094 0 .138-.06.138-.154v-1.755c0-.316-.116-.419-.328-.419s-.417.169-.417.544v1.624a.145.145 0 0 0 .158.161h.069z" transform="translate(4450.024 -5081.19)"/>
        <path id="Path_48" data-name="Path 48" class="cls-2" d="m243.54 110.195.564-.022.069-.873h1.434v.895h.68v.726h-.68v1.738c0 .454.089.6.588.6h.127v.777a8.341 8.341 0 0 1-.951.051c-.907 0-1.37-.281-1.37-1.04v-2.134h-.461z" transform="translate(4429.675 -5077.506)"/>
        <path id="Path_49" data-name="Path 49" class="cls-2" d="M275.31 94.744v-.2l.236-.078a.954.954 0 0 0 .713-.989V82.906a.981.981 0 0 0-.16-.6.951.951 0 0 0-.553-.3l-.256-.06v-.2l3.616-.849.238.181-.08 2.767V90.6c0 .488 0 .971.011 1.452s.009.958.009 1.432a1.174 1.174 0 0 0 .158.642.938.938 0 0 0 .533.363l.258.058v.2z" transform="translate(4403.686 -5054.252)"/>
        <path id="Path_50" data-name="Path 50" class="cls-2" d="M307.855 103.729a5.2 5.2 0 0 1 2.129 1.6 4.219 4.219 0 0 1 .856 2.286 5.66 5.66 0 0 1-.515 2.686 5.262 5.262 0 0 1-1.633 2.177 4.42 4.42 0 0 1-2.3.887 5.46 5.46 0 0 1-4.576-1.985 4.381 4.381 0 0 1-.907-2.266 5.3 5.3 0 0 1 .479-2.7 5.626 5.626 0 0 1 1.617-2.217 4.253 4.253 0 0 1 2.243-.929 5.126 5.126 0 0 1 2.607.461zm-.156.363a1.524 1.524 0 0 0-1.165-.078 2.571 2.571 0 0 0-1.1 1.038 16.389 16.389 0 0 0-1.3 2.506 16.6 16.6 0 0 0-.964 2.682 2.5 2.5 0 0 0 0 1.517 1.539 1.539 0 0 0 .851.8 1.573 1.573 0 0 0 1.174.082 2.526 2.526 0 0 0 1.112-1.034 16.459 16.459 0 0 0 1.3-2.54 16.288 16.288 0 0 0 .956-2.666 2.538 2.538 0 0 0 0-1.519 1.564 1.564 0 0 0-.869-.789z" transform="translate(4382.73 -5072.552)"/>
        <path id="Path_51" data-name="Path 51" class="cls-2" d="M359.488 113.844a3.333 3.333 0 0 1-1.414-.3 2.177 2.177 0 0 1-1.007-.958 3.432 3.432 0 0 1-.347-1.749l.06-5.081a1.06 1.06 0 0 0-.158-.653.871.871 0 0 0-.5-.276l-.238-.08v-.2l3.538-.691.2.2-.1 2.807v4.763a1.132 1.132 0 0 0 .363.929 1.41 1.41 0 0 0 .92.3 2.881 2.881 0 0 0 .987-.158 3.505 3.505 0 0 0 .871-.475l.078-6.442a1.116 1.116 0 0 0-.138-.642.826.826 0 0 0-.514-.267l-.2-.058v-.2l3.459-.751.2.2-.06 2.807v5.355a1.555 1.555 0 0 0 .118.673.925.925 0 0 0 .515.4l.2.058v.2l-3.46.2-.181-1.165a7 7 0 0 1-1.412.907 4.106 4.106 0 0 1-1.784.359z" transform="translate(4337.711 -5073.054)"/>
        <path id="Path_52" data-name="Path 52" class="cls-2" d="M412.31 113.022v-.2l.278-.078a.9.9 0 0 0 .691-.969v-6.186a1.172 1.172 0 0 0-.138-.642.8.8 0 0 0-.534-.287l-.3-.08v-.2l3.381-1.145.2.2.158 1.185a6.2 6.2 0 0 1 1.562-1.007 4.1 4.1 0 0 1 1.718-.4 2.7 2.7 0 0 1 2.007.711 2.972 2.972 0 0 1 .7 2.177v5.699a.907.907 0 0 0 .751.969l.181.058v.2H418.3v-.2l.256-.078a.92.92 0 0 0 .693-.969v-6.309a1.123 1.123 0 0 0-1.27-1.27 3.051 3.051 0 0 0-1.9.871v6.714a.9.9 0 0 0 .691.969l.181.058v.2z" transform="translate(4291.53 -5072.53)"/>
        <path id="Path_53" data-name="Path 53" class="cls-2" d="M473.6 109.391a5.287 5.287 0 0 1-2.312-.455v.673a.677.677 0 0 0 .611.726l3.716.691a9.994 9.994 0 0 1 1.68.465 2.936 2.936 0 0 1 1.2.811 2.109 2.109 0 0 1 .455 1.432 2.871 2.871 0 0 1-.633 1.789 4.373 4.373 0 0 1-1.867 1.325 8.147 8.147 0 0 1-3.074.5 7.821 7.821 0 0 1-2.51-.325 2.722 2.722 0 0 1-1.316-.84 1.791 1.791 0 0 1-.385-1.089 2.558 2.558 0 0 1 .484-1.434 3.839 3.839 0 0 1 1.2-1.156 1.929 1.929 0 0 1-.889-.613 1.337 1.337 0 0 1-.278-.809 1.4 1.4 0 0 1 .209-.742 5.585 5.585 0 0 1 .5-.7l.653-.829a2.8 2.8 0 0 1-1.443-2.609 2.925 2.925 0 0 1 1.018-2.312 4.417 4.417 0 0 1 2.994-.889 5.976 5.976 0 0 1 1.769.236 3.419 3.419 0 0 1 1.254.673 5.327 5.327 0 0 0 1.2-.327 3.571 3.571 0 0 0 1.018-.622l.278.2v1.007H476.9a3.157 3.157 0 0 1-.307 4.319 4.357 4.357 0 0 1-2.993.904zm-2.965 5.081a2.137 2.137 0 0 0 .726 1.76 3.592 3.592 0 0 0 2.283.592 4.637 4.637 0 0 0 2.47-.533 1.689 1.689 0 0 0 .831-1.5 1.1 1.1 0 0 0-.406-.891 3.079 3.079 0 0 0-1.374-.514l-3.576-.671-.316-.08a3.741 3.741 0 0 0-.455.907 2.843 2.843 0 0 0-.181.929zm2.943-5.472a1.232 1.232 0 0 0 1.156-.651 4.769 4.769 0 0 0 .363-2.177 4.539 4.539 0 0 0-.363-2.143 1.294 1.294 0 0 0-2.223.02 4.547 4.547 0 0 0-.376 2.163 4.815 4.815 0 0 0 .347 2.154 1.158 1.158 0 0 0 1.1.633z" transform="translate(4244.987 -5072.317)"/>
        <path id="Path_54" data-name="Path 54" class="cls-2" d="M525.764 103.212a4.333 4.333 0 0 1 2.194.523 3.578 3.578 0 0 1 1.394 1.424 4.24 4.24 0 0 1 .484 2.045 3.359 3.359 0 0 1-.02.445 1.8 1.8 0 0 1-.078.4h-5.89a5.079 5.079 0 0 0 .76 3.074 2.64 2.64 0 0 0 2.2.936 3.5 3.5 0 0 0 1.6-.316 3.937 3.937 0 0 0 1.147-.929l.2.181a4.536 4.536 0 0 1-1.633 1.7 4.647 4.647 0 0 1-2.441.613 5.045 5.045 0 0 1-2.491-.6 4.25 4.25 0 0 1-1.7-1.729 5.528 5.528 0 0 1-.613-2.687 5.1 5.1 0 0 1 .715-2.762 4.756 4.756 0 0 1 1.829-1.729 4.919 4.919 0 0 1 2.343-.589zm-.058.4a1.452 1.452 0 0 0-.98.345 2.362 2.362 0 0 0-.631 1.225 10.922 10.922 0 0 0-.247 2.481h3.379a7.621 7.621 0 0 0-.158-3.1 1.343 1.343 0 0 0-1.363-.947z" transform="translate(4202.663 -5072.521)"/>
    </g>
</svg>
