<svg xmlns="http://www.w3.org/2000/svg" xmlns:xlink="http://www.w3.org/1999/xlink" width="358" height="69" viewBox="0 0 358 69">
  <defs>
    <filter id="Path_28885" x="0" y="0" width="358" height="69" filterUnits="userSpaceOnUse">
      <feOffset dy="3" input="SourceAlpha"/>
      <feGaussianBlur stdDeviation="3" result="blur"/>
      <feFlood flood-opacity="0.161"/>
      <feComposite operator="in" in2="blur"/>
      <feComposite in="SourceGraphic"/>
    </filter>
    <clipPath id="clip-path">
      <rect id="Rectangle_11720" data-name="Rectangle 11720" width="103.052" height="30.332" fill="none"/>
    </clipPath>
    <clipPath id="clip-path-2">
      <path id="Path_28890" data-name="Path 28890" d="M37,28.482v.223l3.143,3.144.071-.041,3.724-2.116a1.155,1.155,0,0,0,0-2.2l-3.723-2.116-.072-.04Z" transform="translate(-36.999 -25.339)" fill="none"/>
    </clipPath>
    <linearGradient id="linear-gradient" x1="-2.19" y1="2.816" x2="-2.13" y2="2.816" gradientUnits="objectBoundingBox">
      <stop offset="0" stop-color="gold"/>
      <stop offset="0.075" stop-color="#fece00"/>
      <stop offset="0.48" stop-color="#fca704"/>
      <stop offset="0.803" stop-color="#fa8e07"/>
      <stop offset="1" stop-color="#fa8608"/>
    </linearGradient>
    <clipPath id="clip-path-3">
      <path id="Path_28891" data-name="Path 28891" d="M16.971,41.7a1.238,1.238,0,0,0,1.582.047L29.67,35.426l-3.214-3.214Z" transform="translate(-16.971 -32.212)" fill="none"/>
    </clipPath>
    <linearGradient id="linear-gradient-2" x1="-0.4" y1="1.133" x2="-0.371" y2="1.133" gradientUnits="objectBoundingBox">
      <stop offset="0" stop-color="#e82c36"/>
      <stop offset="1" stop-color="#b4005a"/>
    </linearGradient>
    <clipPath id="clip-path-4">
      <path id="Path_28892" data-name="Path 28892" d="M16.971,11.847l9.484,9.485,3.215-3.214L18.553,11.8a1.748,1.748,0,0,0-.853-.256.975.975,0,0,0-.729.3" transform="translate(-16.971 -11.545)" fill="none"/>
    </clipPath>
    <linearGradient id="linear-gradient-3" x1="-0.405" y1="1.755" x2="-0.375" y2="1.755" gradientUnits="objectBoundingBox">
      <stop offset="0" stop-color="#2f8f5b"/>
      <stop offset="0.389" stop-color="#4ea157"/>
      <stop offset="0.768" stop-color="#67b054"/>
      <stop offset="1" stop-color="#70b653"/>
    </linearGradient>
    <clipPath id="clip-path-6">
      <rect id="Rectangle_11728" data-name="Rectangle 11728" width="103.053" height="30.333" fill="none"/>
    </clipPath>
  </defs>
  <g id="Group_9533" data-name="Group 9533" transform="translate(654 -2199)">
    <g transform="matrix(1, 0, 0, 1, -654, 2199)" filter="url(#Path_28885)">
      <path id="Path_28885-2" data-name="Path 28885" d="M35,0H367a4,4,0,0,1,4,4V47a4,4,0,0,1-4,4H35a4,4,0,0,1-4-4V4A4,4,0,0,1,35,0Z" transform="translate(-22 6)" fill="#243d45"/>
    </g>
    <g id="Group_9531" data-name="Group 9531" transform="translate(-534.195 2215.334)">
      <g id="Group_9513" data-name="Group 9513" transform="translate(0 0)">
        <g id="Group_9512" data-name="Group 9512" clip-path="url(#clip-path)">
          <path id="Path_28886" data-name="Path 28886" d="M99.6,30.376H4.3a3.5,3.5,0,0,1-3.5-3.5V4.3A3.5,3.5,0,0,1,4.3.808H99.6a3.5,3.5,0,0,1,3.5,3.5V26.88a3.5,3.5,0,0,1-3.5,3.5" transform="translate(-0.425 -0.425)"/>
          <path id="Path_28887" data-name="Path 28887" d="M99.173,30.332H3.878A3.883,3.883,0,0,1,0,26.454V3.878A3.883,3.883,0,0,1,3.878,0h95.3a3.883,3.883,0,0,1,3.878,3.878V26.454a3.883,3.883,0,0,1-3.878,3.878M3.878.765A3.117,3.117,0,0,0,.765,3.878V26.454a3.117,3.117,0,0,0,3.113,3.113h95.3a3.117,3.117,0,0,0,3.113-3.113V3.878A3.117,3.117,0,0,0,99.173.765Z" transform="translate(0 0)" fill="#96999c"/>
          <path id="Path_28888" data-name="Path 28888" d="M86.834,31.046a3.239,3.239,0,1,0,3.252,3.239,3.193,3.193,0,0,0-3.252-3.239m0,5.2a1.968,1.968,0,1,1,1.828-1.963,1.874,1.874,0,0,1-1.828,1.963m-7.093-5.2a3.239,3.239,0,1,0,3.251,3.239,3.193,3.193,0,0,0-3.251-3.239m0,5.2a1.968,1.968,0,1,1,1.828-1.963,1.874,1.874,0,0,1-1.828,1.963M71.3,32.04v1.374h3.288a2.865,2.865,0,0,1-.749,1.73,3.365,3.365,0,0,1-2.54,1.006,3.657,3.657,0,0,1,0-7.314,3.5,3.5,0,0,1,2.479.982l.969-.969A4.794,4.794,0,0,0,71.3,27.463a5.032,5.032,0,1,0,0,10.062,4.6,4.6,0,0,0,3.509-1.411A4.54,4.54,0,0,0,76,32.9a4.471,4.471,0,0,0-.074-.859Zm34.509,1.068a3.01,3.01,0,0,0-2.773-2.061,3.078,3.078,0,0,0-3.055,3.239,3.17,3.17,0,0,0,3.215,3.24,3.223,3.223,0,0,0,2.7-1.436l-1.1-.736a1.851,1.851,0,0,1-1.6.9,1.648,1.648,0,0,1-1.571-.982l4.332-1.791Zm-4.417,1.08a1.777,1.777,0,0,1,1.693-1.889,1.253,1.253,0,0,1,1.2.687Zm-3.522,3.141H99.3V27.807H97.872ZM95.541,31.77h-.049a2.246,2.246,0,0,0-1.706-.724,3.242,3.242,0,0,0,0,6.479,2.21,2.21,0,0,0,1.706-.736h.049v.466c0,1.239-.662,1.9-1.73,1.9A1.791,1.791,0,0,1,92.179,38l-1.24.516a3.088,3.088,0,0,0,2.872,1.914c1.669,0,3.08-.982,3.08-3.375V31.242h-1.35Zm-1.632,4.479a1.97,1.97,0,0,1,0-3.927,1.979,1.979,0,0,1,0,3.927m18.57-8.442h-3.405v9.522h1.421V33.721h1.985a2.962,2.962,0,1,0,0-5.914m.037,4.589h-2.022V29.132h2.022a1.632,1.632,0,1,1,0,3.264m8.783-1.368a2.669,2.669,0,0,0-2.536,1.458l1.262.527a1.346,1.346,0,0,1,1.3-.7,1.368,1.368,0,0,1,1.495,1.225v.1a3.145,3.145,0,0,0-1.482-.367c-1.36,0-2.744.747-2.744,2.144a2.2,2.2,0,0,0,2.364,2.095,2.005,2.005,0,0,0,1.813-.931h.049v.735h1.372V33.662a2.612,2.612,0,0,0-2.891-2.634m-.171,5.219c-.465,0-1.115-.233-1.115-.808,0-.735.808-1.017,1.506-1.017a2.53,2.53,0,0,1,1.3.318,1.722,1.722,0,0,1-1.69,1.507m8.06-5.01-1.629,4.128h-.049l-1.691-4.128h-1.531l2.535,5.77-1.445,3.209h1.482l3.908-8.979Zm-12.8,6.092h1.421V27.807h-1.421Z" transform="translate(-34.85 -14.458)" fill="#fff"/>
          <path id="Path_28889" data-name="Path 28889" d="M16.579,12.122a1.522,1.522,0,0,0-.352,1.069v16.83a1.521,1.521,0,0,0,.352,1.069l.056.055,9.428-9.428V21.5l-9.428-9.428Z" transform="translate(-8.543 -6.353)" fill="#40bff2"/>
        </g>
      </g>
      <g id="Group_9515" data-name="Group 9515" transform="translate(17.521 11.999)">
        <g id="Group_9514" data-name="Group 9514" clip-path="url(#clip-path-2)">
          <rect id="Rectangle_11721" data-name="Rectangle 11721" width="8.002" height="6.51" transform="translate(0 0)" fill="url(#linear-gradient)"/>
        </g>
      </g>
      <g id="Group_9517" data-name="Group 9517" transform="translate(8.037 15.254)">
        <g id="Group_9516" data-name="Group 9516" clip-path="url(#clip-path-3)">
          <rect id="Rectangle_11722" data-name="Rectangle 11722" width="15.981" height="15.981" transform="translate(-4.951 4.951) rotate(-45)" fill="url(#linear-gradient-2)"/>
        </g>
      </g>
      <g id="Group_9519" data-name="Group 9519" transform="translate(8.037 5.467)">
        <g id="Group_9518" data-name="Group 9518" clip-path="url(#clip-path-4)">
          <rect id="Rectangle_11723" data-name="Rectangle 11723" width="15.9" height="15.9" transform="translate(-4.893 4.893) rotate(-45)" fill="url(#linear-gradient-3)"/>
        </g>
      </g>
      <g id="Group_9521" data-name="Group 9521" transform="translate(0 0)">
        <g id="Group_9520" data-name="Group 9520" clip-path="url(#clip-path)">
          <path id="Path_28893" data-name="Path 28893" d="M70.209,12.213A1.627,1.627,0,0,0,69.13,11.8a1.721,1.721,0,0,0,0,3.44,1.3,1.3,0,0,0,1.431-1.21H69.285V13.5h1.964c0,1.574-.839,2.315-2.12,2.315a2.3,2.3,0,0,1,0-4.6,2.216,2.216,0,0,1,1.515.592Z" transform="translate(-35.202 -5.906)" fill="#fff"/>
          <path id="Path_28894" data-name="Path 28894" d="M80.522,11.329v.565H78.473v1.431h1.789v.566H78.473v1.353h2.113v.565H77.869V11.329Z" transform="translate(-40.994 -5.964)" fill="#fff"/>
          <path id="Path_28895" data-name="Path 28895" d="M88.052,11.329V11.9H86.693V15.81h-.611V11.9H84.723v-.572Z" transform="translate(-44.602 -5.964)" fill="#fff"/>
          <rect id="Rectangle_11724" data-name="Rectangle 11724" width="0.605" height="4.481" transform="translate(45.746 5.365)" fill="#fff"/>
          <path id="Path_28896" data-name="Path 28896" d="M102.886,11.329V11.9h-1.359V15.81h-.611V11.9H99.556v-.572Z" transform="translate(-52.411 -5.964)" fill="#fff"/>
          <path id="Path_28897" data-name="Path 28897" d="M113.082,11.218a2.3,2.3,0,1,1-2.263,2.3,2.273,2.273,0,0,1,2.263-2.3m0,4.013a1.714,1.714,0,1,0-1.658-1.71,1.67,1.67,0,0,0,1.658,1.71" transform="translate(-58.341 -5.906)" fill="#fff"/>
          <path id="Path_28898" data-name="Path 28898" d="M125.017,15.81l-2.042-3.375V15.81h-.6V11.329h.6l2.022,3.349V11.329h.605V15.81Z" transform="translate(-64.422 -5.964)" fill="#fff"/>
        </g>
      </g>
    </g>
    <g id="Group_9532" data-name="Group 9532" transform="translate(-420.808 2215.334)">
      <g id="Group_9523" data-name="Group 9523" transform="translate(0 0)" clip-path="url(#clip-path-6)">
        <path id="Path_28899" data-name="Path 28899" d="M99.6,30.375H4.3a3.5,3.5,0,0,1-3.5-3.5V4.3A3.5,3.5,0,0,1,4.3.807H99.6a3.5,3.5,0,0,1,3.5,3.5V26.879a3.5,3.5,0,0,1-3.5,3.5" transform="translate(-0.425 -0.425)"/>
        <path id="Path_28900" data-name="Path 28900" d="M99.174,30.333H3.878A3.883,3.883,0,0,1,0,26.454V3.878A3.883,3.883,0,0,1,3.878,0h95.3a3.883,3.883,0,0,1,3.878,3.878V26.454a3.883,3.883,0,0,1-3.878,3.878M3.878.765A3.117,3.117,0,0,0,.765,3.878V26.454a3.117,3.117,0,0,0,3.113,3.113h95.3a3.117,3.117,0,0,0,3.113-3.113V3.878A3.117,3.117,0,0,0,99.174.765Z" transform="translate(0 0)" fill="#96999c"/>
        <path id="Path_28901" data-name="Path 28901" d="M70.929,14.246,70.5,15.657h-.939l1.6-4.982h1.16l1.619,4.982h-.975l-.451-1.412Zm1.427-.688-.393-1.227c-.1-.3-.177-.643-.251-.931H71.7c-.073.288-.148.636-.236.931l-.385,1.227Z" transform="translate(-36.62 -5.62)" fill="#fff"/>
        <path id="Path_28902" data-name="Path 28902" d="M80.578,13.594l.584,1.826c.1.318.177.606.244.9h.022c.067-.3.148-.577.244-.9l.576-1.826H83.2l-1.375,3.6h-.895l-1.338-3.6Z" transform="translate(-41.902 -7.156)" fill="#fff"/>
        <path id="Path_28903" data-name="Path 28903" d="M91.489,16.239a4.836,4.836,0,0,0,.059.865h-.821l-.066-.4h-.022a1.317,1.317,0,0,1-1.065.48,1.068,1.068,0,0,1-1.131-1.072c0-.9.806-1.368,2.136-1.36v-.059c0-.237-.1-.628-.732-.628a1.906,1.906,0,0,0-.968.266l-.178-.591a2.6,2.6,0,0,1,1.3-.318,1.348,1.348,0,0,1,1.486,1.522Zm-.887-.895c-.643-.008-1.257.126-1.257.673a.477.477,0,0,0,.518.517.746.746,0,0,0,.717-.5.609.609,0,0,0,.022-.2Z" transform="translate(-46.561 -7.066)" fill="#fff"/>
        <path id="Path_28904" data-name="Path 28904" d="M97.982,11.409a.515.515,0,1,1,.008,0Zm-.451.518h.909v3.6h-.909Z" transform="translate(-51.318 -5.489)" fill="#fff"/>
        <rect id="Rectangle_11726" data-name="Rectangle 11726" width="0.909" height="5.256" transform="translate(48.431 4.782)" fill="#fff"/>
        <path id="Path_28905" data-name="Path 28905" d="M109.483,16.239a4.885,4.885,0,0,0,.059.865h-.82l-.067-.4h-.022a1.316,1.316,0,0,1-1.065.48,1.069,1.069,0,0,1-1.131-1.072c0-.9.806-1.368,2.136-1.36v-.059c0-.237-.1-.628-.732-.628a1.906,1.906,0,0,0-.968.266l-.177-.591a2.594,2.594,0,0,1,1.3-.318,1.349,1.349,0,0,1,1.486,1.522Zm-.887-.895c-.643-.008-1.256.126-1.256.673a.477.477,0,0,0,.517.517.745.745,0,0,0,.717-.5.609.609,0,0,0,.022-.2Z" transform="translate(-56.033 -7.066)" fill="#fff"/>
        <path id="Path_28906" data-name="Path 28906" d="M115.55,10.1h.909v2.151h.015a1.3,1.3,0,0,1,1.154-.576c.879,0,1.507.732,1.5,1.826a1.724,1.724,0,0,1-1.634,1.936,1.24,1.24,0,0,1-1.138-.621h-.015l-.045.54h-.776c.015-.244.029-.643.029-1.005Zm.909,3.77a1.046,1.046,0,0,0,.022.215.831.831,0,0,0,.806.636c.569,0,.917-.451.917-1.182,0-.636-.3-1.153-.909-1.153a.846.846,0,0,0-.806.665,1.122,1.122,0,0,0-.029.236Z" transform="translate(-60.816 -5.316)" fill="#fff"/>
        <rect id="Rectangle_11727" data-name="Rectangle 11727" width="0.909" height="5.256" transform="translate(59.383 4.782)" fill="#fff"/>
        <path id="Path_28907" data-name="Path 28907" d="M130.484,15.559a.978.978,0,0,0,1.109.931,2.9,2.9,0,0,0,1-.163l.134.621a3.238,3.238,0,0,1-1.257.229,1.7,1.7,0,0,1-1.855-1.818,1.783,1.783,0,0,1,1.76-1.937,1.566,1.566,0,0,1,1.552,1.752,2.249,2.249,0,0,1-.03.385Zm1.582-.636a.774.774,0,0,0-.747-.879.889.889,0,0,0-.835.879Z" transform="translate(-68.233 -7.066)" fill="#fff"/>
        <path id="Path_28908" data-name="Path 28908" d="M144.071,17.186a1.741,1.741,0,0,1-1.8-1.855,1.778,1.778,0,0,1,1.863-1.907,1.727,1.727,0,0,1,1.789,1.848,1.782,1.782,0,0,1-1.841,1.915Zm.029-.658c.517,0,.879-.5.879-1.234,0-.562-.251-1.213-.872-1.213-.644,0-.9.628-.9,1.227,0,.695.348,1.219.887,1.219Z" transform="translate(-74.896 -7.066)" fill="#fff"/>
        <path id="Path_28909" data-name="Path 28909" d="M152.207,14.576c0-.414-.015-.761-.03-1.072h.791l.045.54h.022a1.323,1.323,0,0,1,1.154-.621c.628,0,1.279.406,1.279,1.545V17.1h-.909V15.071c0-.518-.192-.909-.688-.909a.762.762,0,0,0-.709.532.836.836,0,0,0-.045.288V17.1h-.909Z" transform="translate(-80.113 -7.066)" fill="#fff"/>
        <path id="Path_28910" data-name="Path 28910" d="M166.409,11.643v.924h.865v.68h-.865v1.582c0,.444.118.665.465.665a1.19,1.19,0,0,0,.355-.037l.015.687a1.986,1.986,0,0,1-.658.1,1.041,1.041,0,0,1-.783-.3,1.418,1.418,0,0,1-.288-1.013V13.247H165v-.68h.51v-.672Z" transform="translate(-86.866 -6.129)" fill="#fff"/>
        <path id="Path_28911" data-name="Path 28911" d="M171.934,10.1h.909v2.144h.015a1.2,1.2,0,0,1,.451-.406,1.281,1.281,0,0,1,.628-.163c.613,0,1.257.407,1.257,1.56v2.122h-.909V13.329c0-.518-.192-.917-.7-.917a.758.758,0,0,0-.709.51.824.824,0,0,0-.037.274v2.158h-.909Z" transform="translate(-90.514 -5.316)" fill="#fff"/>
        <path id="Path_28912" data-name="Path 28912" d="M181.935,15.559a.978.978,0,0,0,1.109.931,2.9,2.9,0,0,0,1-.163l.134.621a3.235,3.235,0,0,1-1.257.229,1.7,1.7,0,0,1-1.856-1.818,1.783,1.783,0,0,1,1.76-1.937,1.565,1.565,0,0,1,1.552,1.752,2.309,2.309,0,0,1-.029.385Zm1.582-.636a.774.774,0,0,0-.746-.879.889.889,0,0,0-.835.879Z" transform="translate(-95.319 -7.066)" fill="#fff"/>
        <path id="Path_28913" data-name="Path 28913" d="M33.821,25.1a4.434,4.434,0,0,1,2.113-3.721,4.541,4.541,0,0,0-3.578-1.935c-1.5-.158-2.965.9-3.73.9-.782,0-1.965-.886-3.235-.86a4.766,4.766,0,0,0-4.01,2.446c-1.733,3-.44,7.412,1.22,9.84.832,1.188,1.8,2.515,3.073,2.467,1.243-.052,1.707-.792,3.208-.792s1.924.792,3.22.762c1.334-.022,2.174-1.193,2.975-2.393a9.769,9.769,0,0,0,1.361-2.772A4.285,4.285,0,0,1,33.821,25.1" transform="translate(-10.822 -10.225)" fill="#fff"/>
        <path id="Path_28914" data-name="Path 28914" d="M40.143,12.61a4.356,4.356,0,0,0,1-3.129,4.442,4.442,0,0,0-2.874,1.488,4.153,4.153,0,0,0-1.026,3.013,3.673,3.673,0,0,0,2.9-1.372" transform="translate(-19.594 -4.991)" fill="#fff"/>
        <path id="Path_28915" data-name="Path 28915" d="M76.984,39H75.253L74.3,36.016h-3.3L70.1,39H68.415l3.269-10.152H73.7Zm-2.966-4.234-.858-2.651q-.138-.4-.512-1.912h-.03q-.151.649-.483,1.912l-.843,2.651Z" transform="translate(-36.017 -15.186)" fill="#fff"/>
        <path id="Path_28916" data-name="Path 28916" d="M96.423,38.227a4.16,4.16,0,0,1-1.01,2.952,2.949,2.949,0,0,1-2.243.964A2.247,2.247,0,0,1,91.091,41.1h-.029v3.856H89.434V37.067q0-1.174-.06-2.409H90.8l.091,1.16h.03a2.892,2.892,0,0,1,4.631-.286,4.037,4.037,0,0,1,.866,2.7m-1.657.06a3.021,3.021,0,0,0-.482-1.763,1.668,1.668,0,0,0-1.415-.723,1.686,1.686,0,0,0-1.092.4,1.854,1.854,0,0,0-.641,1.048,2.126,2.126,0,0,0-.075.5v1.221a1.954,1.954,0,0,0,.488,1.347,1.623,1.623,0,0,0,1.274.549,1.659,1.659,0,0,0,1.43-.707,3.108,3.108,0,0,0,.513-1.868" transform="translate(-47.051 -18.166)" fill="#fff"/>
        <path id="Path_28917" data-name="Path 28917" d="M114.2,38.227a4.158,4.158,0,0,1-1.01,2.952,2.948,2.948,0,0,1-2.244.964,2.245,2.245,0,0,1-2.077-1.039h-.03v3.856h-1.626V37.067q0-1.174-.06-2.409h1.43l.091,1.16h.031a2.892,2.892,0,0,1,4.63-.286,4.036,4.036,0,0,1,.865,2.7m-1.656.06a3.015,3.015,0,0,0-.483-1.763,1.666,1.666,0,0,0-1.415-.723,1.69,1.69,0,0,0-1.092.4,1.854,1.854,0,0,0-.639,1.048,2.041,2.041,0,0,0-.076.5v1.221a1.948,1.948,0,0,0,.489,1.347,1.62,1.62,0,0,0,1.274.549,1.662,1.662,0,0,0,1.43-.707,3.125,3.125,0,0,0,.513-1.868" transform="translate(-56.411 -18.166)" fill="#fff"/>
        <path id="Path_28918" data-name="Path 28918" d="M134.915,35.982a2.7,2.7,0,0,1-.9,2.109,3.994,3.994,0,0,1-2.764.888,4.851,4.851,0,0,1-2.632-.632l.377-1.355a4.461,4.461,0,0,0,2.352.647,2.226,2.226,0,0,0,1.432-.413,1.357,1.357,0,0,0,.511-1.11,1.418,1.418,0,0,0-.421-1.041,3.928,3.928,0,0,0-1.4-.785q-2.666-1-2.664-2.911a2.573,2.573,0,0,1,.933-2.051,3.686,3.686,0,0,1,2.485-.8,4.929,4.929,0,0,1,2.3.483l-.406,1.325a4.008,4.008,0,0,0-1.944-.466,1.96,1.96,0,0,0-1.339.421,1.209,1.209,0,0,0-.406.919,1.238,1.238,0,0,0,.466.994,5.258,5.258,0,0,0,1.476.784A5.016,5.016,0,0,1,134.3,34.22a2.589,2.589,0,0,1,.618,1.763" transform="translate(-67.709 -15.017)" fill="#fff"/>
        <path id="Path_28919" data-name="Path 28919" d="M148.315,34.018h-1.792v3.555q0,1.356.95,1.355a2.954,2.954,0,0,0,.722-.074l.045,1.235a3.654,3.654,0,0,1-1.264.18,1.949,1.949,0,0,1-1.506-.586,2.885,2.885,0,0,1-.543-1.974v-3.69h-1.069V32.8h1.069V31.458l1.6-.483V32.8h1.792Z" transform="translate(-75.732 -16.307)" fill="#fff"/>
        <path id="Path_28920" data-name="Path 28920" d="M162.382,38.258a4.016,4.016,0,0,1-.964,2.772,3.441,3.441,0,0,1-2.681,1.114,3.272,3.272,0,0,1-2.568-1.069,3.888,3.888,0,0,1-.957-2.695,3.972,3.972,0,0,1,.986-2.786,3.408,3.408,0,0,1,2.658-1.086,3.346,3.346,0,0,1,2.591,1.07,3.858,3.858,0,0,1,.934,2.681m-1.688.053a3.293,3.293,0,0,0-.437-1.737,1.605,1.605,0,0,0-1.46-.877,1.629,1.629,0,0,0-1.491.877,3.361,3.361,0,0,0-.435,1.768,3.294,3.294,0,0,0,.435,1.736,1.641,1.641,0,0,0,1.478.876,1.622,1.622,0,0,0,1.459-.891,3.3,3.3,0,0,0,.452-1.752" transform="translate(-81.711 -18.166)" fill="#fff"/>
        <path id="Path_28921" data-name="Path 28921" d="M177.161,36.088a2.884,2.884,0,0,0-.511-.045,1.543,1.543,0,0,0-1.327.648,2.442,2.442,0,0,0-.406,1.445v3.841h-1.625l.014-5.014q0-1.266-.06-2.305h1.416l.06,1.4h.044a2.506,2.506,0,0,1,.814-1.16,1.969,1.969,0,0,1,1.176-.392,2.677,2.677,0,0,1,.406.029Z" transform="translate(-91.205 -18.166)" fill="#fff"/>
        <path id="Path_28922" data-name="Path 28922" d="M189.642,37.955a3.919,3.919,0,0,1-.059.738H184.7a2.127,2.127,0,0,0,.707,1.658,2.416,2.416,0,0,0,1.6.51,5.408,5.408,0,0,0,1.972-.346l.255,1.13a6.118,6.118,0,0,1-2.456.453,3.55,3.55,0,0,1-2.673-1,3.7,3.7,0,0,1-.971-2.689,4.2,4.2,0,0,1,.9-2.757,3.116,3.116,0,0,1,2.559-1.173,2.732,2.732,0,0,1,2.4,1.173,3.965,3.965,0,0,1,.645,2.305m-1.551-.422a2.2,2.2,0,0,0-.315-1.25,1.424,1.424,0,0,0-1.3-.678,1.546,1.546,0,0,0-1.294.663,2.408,2.408,0,0,0-.481,1.264Z" transform="translate(-96.411 -18.15)" fill="#fff"/>
      </g>
    </g>
    <path id="The_Karnataka_police" data-name="The Karnataka police" d="M10.115-5.061a5.474,5.474,0,0,1-.371,2.044A4.7,4.7,0,0,1,8.7-1.414,4.666,4.666,0,0,1,7.084-.371,5.7,5.7,0,0,1,4.984,0H1.127V-10.122H4.984a5.655,5.655,0,0,1,2.1.374A4.734,4.734,0,0,1,8.7-8.7a4.658,4.658,0,0,1,1.043,1.6A5.474,5.474,0,0,1,10.115-5.061Zm-1.932,0a4.713,4.713,0,0,0-.22-1.495,3.1,3.1,0,0,0-.637-1.12,2.779,2.779,0,0,0-1.008-.7,3.456,3.456,0,0,0-1.333-.245H3.017V-1.5H4.984a3.456,3.456,0,0,0,1.333-.245,2.779,2.779,0,0,0,1.008-.7,3.1,3.1,0,0,0,.637-1.12A4.713,4.713,0,0,0,8.183-5.061Zm6.4-2.233a3.916,3.916,0,0,1,1.453.259,3.182,3.182,0,0,1,1.12.735,3.228,3.228,0,0,1,.718,1.162,4.42,4.42,0,0,1,.252,1.533,4.442,4.442,0,0,1-.252,1.54A3.3,3.3,0,0,1,17.16-.9a3.136,3.136,0,0,1-1.12.742A3.916,3.916,0,0,1,14.588.1a3.963,3.963,0,0,1-1.463-.259A3.13,3.13,0,0,1,12-.9a3.34,3.34,0,0,1-.721-1.169,4.387,4.387,0,0,1-.255-1.54,4.365,4.365,0,0,1,.255-1.533A3.268,3.268,0,0,1,12-6.3a3.176,3.176,0,0,1,1.124-.735A3.963,3.963,0,0,1,14.588-7.294Zm0,6.069a1.521,1.521,0,0,0,1.326-.6,3.018,3.018,0,0,0,.431-1.764,3.053,3.053,0,0,0-.431-1.771,1.514,1.514,0,0,0-1.326-.609,1.544,1.544,0,0,0-1.347.612A3.018,3.018,0,0,0,12.8-3.591a2.984,2.984,0,0,0,.438,1.761A1.551,1.551,0,0,0,14.588-1.225Zm15-5.957L27.307,0H25.921q-.238,0-.329-.308L24.3-4.459q-.063-.21-.116-.417T24.1-5.292q-.042.21-.094.423t-.116.424L22.582-.308A.362.362,0,0,1,22.211,0h-1.33L18.606-7.182h1.379a.556.556,0,0,1,.322.091.424.424,0,0,1,.175.231l1.029,3.836q.077.315.136.616t.1.6q.077-.3.164-.6t.185-.616l1.19-3.85a.439.439,0,0,1,.164-.231.485.485,0,0,1,.3-.091h.763a.528.528,0,0,1,.312.091A.428.428,0,0,1,25-6.874l1.155,3.85q.091.315.171.62t.157.605a11.515,11.515,0,0,1,.259-1.225L27.8-6.86a.473.473,0,0,1,.175-.231.5.5,0,0,1,.3-.091Zm2.6.882a4.677,4.677,0,0,1,.458-.4,2.9,2.9,0,0,1,.511-.315,2.864,2.864,0,0,1,.578-.2,2.893,2.893,0,0,1,.672-.074,2.575,2.575,0,0,1,1.043.2,2.061,2.061,0,0,1,.76.56,2.462,2.462,0,0,1,.462.861,3.659,3.659,0,0,1,.157,1.1V0H35.1V-4.571a1.546,1.546,0,0,0-.3-1.018,1.127,1.127,0,0,0-.917-.361,1.8,1.8,0,0,0-.84.2,3.01,3.01,0,0,0-.742.553V0H30.569V-7.182h1.057a.425.425,0,0,1,.441.315Zm8.029-4.1V0H38.486V-10.4Zm4.907,3.108a3.916,3.916,0,0,1,1.452.259,3.182,3.182,0,0,1,1.12.735,3.228,3.228,0,0,1,.717,1.162,4.42,4.42,0,0,1,.252,1.533,4.442,4.442,0,0,1-.252,1.54A3.3,3.3,0,0,1,47.694-.9a3.136,3.136,0,0,1-1.12.742A3.916,3.916,0,0,1,45.122.1a3.963,3.963,0,0,1-1.463-.259A3.13,3.13,0,0,1,42.535-.9a3.34,3.34,0,0,1-.721-1.169,4.387,4.387,0,0,1-.255-1.54,4.365,4.365,0,0,1,.255-1.533A3.268,3.268,0,0,1,42.535-6.3a3.176,3.176,0,0,1,1.124-.735A3.963,3.963,0,0,1,45.122-7.294Zm0,6.069a1.521,1.521,0,0,0,1.326-.6,3.018,3.018,0,0,0,.431-1.764,3.053,3.053,0,0,0-.431-1.771,1.514,1.514,0,0,0-1.326-.609,1.544,1.544,0,0,0-1.347.612,3.018,3.018,0,0,0-.437,1.767,2.984,2.984,0,0,0,.438,1.761A1.551,1.551,0,0,0,45.122-1.225Zm8.659-1.841a9.535,9.535,0,0,0-1.26.129,3.359,3.359,0,0,0-.819.242,1.077,1.077,0,0,0-.441.343.745.745,0,0,0-.133.427.751.751,0,0,0,.27.651,1.168,1.168,0,0,0,.7.2,2.052,2.052,0,0,0,.921-.193,2.734,2.734,0,0,0,.759-.584ZM49.819-6.181A4.262,4.262,0,0,1,52.8-7.315a2.914,2.914,0,0,1,1.127.207,2.381,2.381,0,0,1,.84.574,2.457,2.457,0,0,1,.521.878,3.376,3.376,0,0,1,.179,1.12V0h-.784a.792.792,0,0,1-.378-.073.51.51,0,0,1-.21-.3l-.154-.518a6.251,6.251,0,0,1-.532.431,3.132,3.132,0,0,1-.539.311,2.9,2.9,0,0,1-.6.193,3.448,3.448,0,0,1-.7.067,2.758,2.758,0,0,1-.84-.123,1.846,1.846,0,0,1-.665-.368,1.65,1.65,0,0,1-.434-.609,2.16,2.16,0,0,1-.154-.847,1.686,1.686,0,0,1,.091-.543,1.586,1.586,0,0,1,.3-.514,2.477,2.477,0,0,1,.535-.462,3.48,3.48,0,0,1,.809-.378,6.986,6.986,0,0,1,1.117-.263,11.153,11.153,0,0,1,1.456-.122v-.42A1.572,1.572,0,0,0,53.473-5.6a1.127,1.127,0,0,0-.889-.347,2.111,2.111,0,0,0-.7.1,2.866,2.866,0,0,0-.486.221l-.382.22a.755.755,0,0,1-.382.1.5.5,0,0,1-.308-.094.79.79,0,0,1-.2-.221ZM61.6-5.348a1.7,1.7,0,0,0-.64-.5A1.889,1.889,0,0,0,60.214-6a1.652,1.652,0,0,0-.707.147,1.424,1.424,0,0,0-.539.445,2.138,2.138,0,0,0-.343.756,4.34,4.34,0,0,0-.119,1.081,4.8,4.8,0,0,0,.1,1.068,2.1,2.1,0,0,0,.291.714,1.107,1.107,0,0,0,.462.4,1.471,1.471,0,0,0,.609.123,1.769,1.769,0,0,0,.917-.224,2.723,2.723,0,0,0,.714-.637ZM63.329-10.4V0H62.272a.407.407,0,0,1-.434-.315l-.147-.693a3.625,3.625,0,0,1-1,.8A2.694,2.694,0,0,1,59.381.1,2.376,2.376,0,0,1,58.3-.14a2.4,2.4,0,0,1-.843-.71A3.406,3.406,0,0,1,56.913-2a5.815,5.815,0,0,1-.192-1.568,4.9,4.9,0,0,1,.217-1.484,3.611,3.611,0,0,1,.623-1.19,2.907,2.907,0,0,1,.973-.788,2.809,2.809,0,0,1,1.274-.283,2.533,2.533,0,0,1,1.029.189,2.637,2.637,0,0,1,.763.511V-10.4ZM12.1,5.878V16H10.444V9.462q0-.392.042-.847L7.427,14.362a.707.707,0,0,1-.665.413H6.5a.707.707,0,0,1-.665-.413L2.737,8.594q.021.231.035.455t.014.413V16H1.127V5.878H2.548q.126,0,.217.007a.587.587,0,0,1,.164.035.357.357,0,0,1,.133.091.777.777,0,0,1,.115.168L6.209,11.8q.119.224.22.462t.2.49q.1-.259.2-.5t.224-.465l2.989-5.607a.707.707,0,0,1,.119-.168A.389.389,0,0,1,10.3,5.92a.587.587,0,0,1,.165-.035q.091-.007.217-.007Zm4.942,2.828a3.916,3.916,0,0,1,1.453.259,3.182,3.182,0,0,1,1.12.735,3.228,3.228,0,0,1,.717,1.162,4.42,4.42,0,0,1,.252,1.533,4.442,4.442,0,0,1-.252,1.54,3.3,3.3,0,0,1-.717,1.169,3.136,3.136,0,0,1-1.12.742,3.916,3.916,0,0,1-1.453.259,3.963,3.963,0,0,1-1.463-.259,3.13,3.13,0,0,1-1.123-.742,3.34,3.34,0,0,1-.721-1.169,4.748,4.748,0,0,1,0-3.073A3.268,3.268,0,0,1,14.458,9.7a3.176,3.176,0,0,1,1.123-.735A3.963,3.963,0,0,1,17.045,8.706Zm0,6.069a1.521,1.521,0,0,0,1.327-.6,3.018,3.018,0,0,0,.431-1.764,3.053,3.053,0,0,0-.431-1.771,1.514,1.514,0,0,0-1.327-.609,1.544,1.544,0,0,0-1.347.613,3.018,3.018,0,0,0-.437,1.767,2.984,2.984,0,0,0,.438,1.76A1.551,1.551,0,0,0,17.045,14.775Zm6.594-.637a1.7,1.7,0,0,0,.64.5,1.854,1.854,0,0,0,.732.147,1.728,1.728,0,0,0,.718-.143,1.365,1.365,0,0,0,.542-.448,2.212,2.212,0,0,0,.343-.777,4.68,4.68,0,0,0,.119-1.13,2.916,2.916,0,0,0-.392-1.712,1.318,1.318,0,0,0-1.127-.529,1.627,1.627,0,0,0-.868.228,2.84,2.84,0,0,0-.707.64Zm0-4.438a3.564,3.564,0,0,1,.962-.725,2.621,2.621,0,0,1,1.208-.27,2.521,2.521,0,0,1,1.123.245,2.4,2.4,0,0,1,.854.7,3.306,3.306,0,0,1,.543,1.109,5.244,5.244,0,0,1,.189,1.463,5.452,5.452,0,0,1-.217,1.589,3.651,3.651,0,0,1-.619,1.222A2.764,2.764,0,0,1,25.452,16.1a2.576,2.576,0,0,1-.609-.066,2.268,2.268,0,0,1-.5-.186,2.035,2.035,0,0,1-.424-.29,3.573,3.573,0,0,1-.368-.382l-.077.483a.434.434,0,0,1-.144.259.447.447,0,0,1-.276.077H21.91V5.6h1.729Zm8.008-.882V16H29.911V8.818Zm.238-2.093a.985.985,0,0,1-.091.42,1.142,1.142,0,0,1-.595.577,1.085,1.085,0,0,1-.434.088,1.043,1.043,0,0,1-.424-.088,1.122,1.122,0,0,1-.347-.234,1.134,1.134,0,0,1-.234-.343,1.019,1.019,0,0,1-.087-.42,1.085,1.085,0,0,1,.087-.434,1.1,1.1,0,0,1,.581-.585,1.043,1.043,0,0,1,.424-.088,1.085,1.085,0,0,1,.434.088,1.154,1.154,0,0,1,.354.234,1.129,1.129,0,0,1,.241.35A1.049,1.049,0,0,1,31.885,6.725ZM35.161,5.6V16H33.432V5.6Zm6.356,5.985a2.081,2.081,0,0,0-.094-.634,1.506,1.506,0,0,0-.284-.522,1.318,1.318,0,0,0-.479-.353,1.646,1.646,0,0,0-.675-.13,1.6,1.6,0,0,0-1.18.427,2.094,2.094,0,0,0-.549,1.211Zm-3.3,1.043a3.4,3.4,0,0,0,.2.956,1.954,1.954,0,0,0,.406.665,1.59,1.59,0,0,0,.6.392,2.174,2.174,0,0,0,.767.129,2.376,2.376,0,0,0,.724-.1,3.4,3.4,0,0,0,.532-.217q.227-.119.4-.217a.669.669,0,0,1,.333-.1.358.358,0,0,1,.322.161l.5.63a2.882,2.882,0,0,1-.644.564,3.612,3.612,0,0,1-.745.364,4.075,4.075,0,0,1-.791.193,5.664,5.664,0,0,1-.781.056,3.837,3.837,0,0,1-1.393-.248,3.118,3.118,0,0,1-1.12-.735,3.448,3.448,0,0,1-.749-1.2,4.659,4.659,0,0,1-.273-1.662,3.976,3.976,0,0,1,.238-1.383,3.324,3.324,0,0,1,.682-1.127,3.213,3.213,0,0,1,1.085-.76,3.574,3.574,0,0,1,1.445-.28,3.516,3.516,0,0,1,1.253.217,2.73,2.73,0,0,1,.987.633,2.934,2.934,0,0,1,.647,1.022,3.808,3.808,0,0,1,.235,1.383,1.122,1.122,0,0,1-.084.528.348.348,0,0,1-.322.136Zm14.7-.448L51.688,8.811q-.091-.224-.189-.532t-.2-.665q-.091.357-.189.668t-.189.543L49.7,12.178ZM56.245,16H54.789a.622.622,0,0,1-.4-.123.763.763,0,0,1-.231-.3L53.4,13.508H49.21l-.756,2.065a.671.671,0,0,1-.217.294.606.606,0,0,1-.4.133h-1.47L50.351,5.878h1.918Zm2.492-1.862a1.7,1.7,0,0,0,.64.5,1.907,1.907,0,0,0,.753.147,1.652,1.652,0,0,0,.707-.147,1.385,1.385,0,0,0,.535-.448,2.216,2.216,0,0,0,.34-.76,4.34,4.34,0,0,0,.119-1.082,4.8,4.8,0,0,0-.1-1.068,2.062,2.062,0,0,0-.291-.71,1.148,1.148,0,0,0-.458-.4,1.43,1.43,0,0,0-.612-.126,1.747,1.747,0,0,0-.917.228,2.783,2.783,0,0,0-.714.64ZM58.646,9.8a3.746,3.746,0,0,1,1-.805,2.689,2.689,0,0,1,1.316-.308,2.355,2.355,0,0,1,1.075.245,2.411,2.411,0,0,1,.84.71,3.408,3.408,0,0,1,.546,1.148,5.777,5.777,0,0,1,.192,1.564,4.92,4.92,0,0,1-.217,1.491,3.649,3.649,0,0,1-.619,1.19,2.862,2.862,0,0,1-.973.787,2.831,2.831,0,0,1-1.278.283A2.575,2.575,0,0,1,59.5,15.92a2.514,2.514,0,0,1-.763-.515v2.94H57.008V8.818h1.057a.425.425,0,0,1,.441.315Zm8.043,4.34a1.7,1.7,0,0,0,.641.5,1.907,1.907,0,0,0,.752.147,1.652,1.652,0,0,0,.707-.147,1.385,1.385,0,0,0,.535-.448,2.216,2.216,0,0,0,.34-.76,4.34,4.34,0,0,0,.119-1.082,4.8,4.8,0,0,0-.1-1.068,2.062,2.062,0,0,0-.29-.71,1.148,1.148,0,0,0-.459-.4,1.43,1.43,0,0,0-.613-.126,1.747,1.747,0,0,0-.917.228,2.783,2.783,0,0,0-.714.64ZM66.6,9.8a3.746,3.746,0,0,1,1-.805,2.689,2.689,0,0,1,1.316-.308,2.355,2.355,0,0,1,1.075.245,2.411,2.411,0,0,1,.84.71,3.408,3.408,0,0,1,.546,1.148,5.776,5.776,0,0,1,.192,1.564,4.92,4.92,0,0,1-.217,1.491,3.649,3.649,0,0,1-.619,1.19,2.862,2.862,0,0,1-.973.787,2.831,2.831,0,0,1-1.277.283,2.575,2.575,0,0,1-1.029-.185,2.514,2.514,0,0,1-.763-.515v2.94H64.96V8.818h1.057a.425.425,0,0,1,.441.315Z" transform="translate(-626.001 2227.666)" fill="#fff"/>
  </g>
</svg>
