<svg xmlns="http://www.w3.org/2000/svg" width="20.539" height="15.547" viewBox="0 0 20.539 15.547">
    <defs>
        <style>
            .cls-1{fill:#424242;stroke:#424242;stroke-width:.5px}
        </style>
    </defs>
    <g id="Group_7782" data-name="Group 7782" transform="translate(-166.897 -517.529)">
        <g id="Group_6500" data-name="Group 6500" transform="translate(169.913 529.413)">
            <g id="Group_6499" data-name="Group 6499">
                <path id="Path_28408" data-name="Path 28408" class="cls-1" d="M212.518 689.887v2.706l.348-.348h-13.253c-.181 0-.361-.009-.542 0h-.023l.348.348v-2.706l-.348.348h12.119c.558 0 1.117.014 1.675 0h.023a.348.348 0 1 0 0-.7h-12.119c-.558 0-1.117-.014-1.675 0h-.023a.353.353 0 0 0-.348.347v2.706a.353.353 0 0 0 .348.348h12.119c.558 0 1.117.014 1.675 0h.023a.353.353 0 0 0 .348-.348v-2.706a.348.348 0 0 0-.7 0z" transform="translate(-198.7 -689.533)"/>
            </g>
        </g>
        <g id="Group_6502" data-name="Group 6502" transform="translate(167.186 517.779)">
            <g id="Group_6501" data-name="Group 6501">
                <path id="Path_28409" data-name="Path 28409" class="cls-1" d="M97.9 199.052H84.651c-.181 0-.361-.009-.542 0h-.023c.111.086.222.169.336.255l-.271-.871-.653-2.092q-.4-1.265-.79-2.53-.341-1.088-.679-2.178c-.111-.354-.2-.721-.334-1.066a.152.152 0 0 1 0-.016l-.51.392c.579.315 1.156.63 1.735.948l2.762 1.508.63.343a.353.353 0 0 0 .422-.053l1.531-1.932q1.213-1.526 2.423-3.054c.185-.234.371-.466.554-.7h-.491l1.531 1.932q1.213 1.526 2.423 3.054c.185.234.371.466.554.7a.35.35 0 0 0 .422.053l1.735-.95 2.764-1.513.63-.345-.51-.392-.271.869c-.218.7-.433 1.392-.651 2.087l-.792 2.539-.681 2.187c-.111.354-.236.707-.331 1.063a.145.145 0 0 0 0 .016.348.348 0 0 0 .672.185l.271-.869c.218-.7.433-1.392.651-2.087l.784-2.535.681-2.187c.109-.352.241-.707.331-1.063a.154.154 0 0 0 0-.016.351.351 0 0 0-.51-.392l-1.735.95-2.759 1.508-.63.345c.141.019.28.037.422.053l-1.531-1.932q-1.213-1.526-2.423-3.054c-.185-.234-.371-.466-.554-.7a.347.347 0 0 0-.491 0l-1.531 1.932q-1.213 1.526-2.423 3.054c-.185.234-.371.466-.554.7.141-.019.28-.037.422-.053-.579-.315-1.156-.63-1.735-.948l-2.762-1.508-.63-.343a.351.351 0 0 0-.51.392l.271.871.653 2.092q.4 1.265.79 2.53.341 1.088.679 2.178c.111.354.211.716.334 1.066a.147.147 0 0 1 0 .016.357.357 0 0 0 .336.255h12.122c.558 0 1.117.014 1.675 0h.023a.352.352 0 0 0 .348-.348.368.368 0 0 0-.361-.346z" transform="translate(-81.012 -187.413)"/>
            </g>
        </g>
    </g>
</svg>
