<svg xmlns="http://www.w3.org/2000/svg" width="38.384" height="18.358" viewBox="0 0 38.384 18.358">
    <defs>
        <style>
            .cls-1{fill:#ffbc3e}.cls-2{fill:#ff6d40}.cls-3{fill:#fff}
        </style>
    </defs>
    <g id="Group_16063" data-name="Group 16063" transform="translate(-1206.557 -726.382)">
        <g id="Group_16063-2" data-name="Group 16063" transform="translate(1206.557 726.382)">
            <path id="Path_30491" data-name="Path 30491" class="cls-1" d="m1211.549 772.969-.062.014a3.889 3.889 0 0 1-1.786.01 2.593 2.593 0 0 1-1.4-.872 2.517 2.517 0 0 1-.511-1.085 3.575 3.575 0 0 1-.079-.655l2.022-.8a2.6 2.6 0 0 0 .6 1.335.85.85 0 0 0 .759.242l.023-.005a.95.95 0 0 0 .609-.438.757.757 0 0 0 .121-.6l-.03-.1a1.769 1.769 0 0 0-.86-.884 8.321 8.321 0 0 0-1.365-.534 8.518 8.518 0 0 1-1.7-.7 2.645 2.645 0 0 1-1.186-1.354 3.191 3.191 0 0 1-.085-.309 2.721 2.721 0 0 1 .12-1.569 3.1 3.1 0 0 1 1.132-1.481 4.778 4.778 0 0 1 1.672-.748l.244-.046a3.072 3.072 0 0 1 1.851.246 3.005 3.005 0 0 1 1.337 1.3 2.27 2.27 0 0 1 .206.561 2.3 2.3 0 0 1-.076 1.215l-2.382.322a1.936 1.936 0 0 0 .11-.984.731.731 0 0 0-.093-.234.808.808 0 0 0-.694-.429 1.076 1.076 0 0 0-.29.023 1.128 1.128 0 0 0-.872 1.251l.012.055a.907.907 0 0 0 .538.578 10.775 10.775 0 0 0 1.248.487 11.365 11.365 0 0 1 1.867.76 3.08 3.08 0 0 1 1.382 1.351 3.171 3.171 0 0 1 .242.685 2.233 2.233 0 0 1-.024 1.113 2.842 2.842 0 0 1-.943 1.448 4 4 0 0 1-1.657.831z" transform="translate(-1206.557 -759.617)"/>
            <path id="Path_30492" data-name="Path 30492" class="cls-1" d="M1300.52 738.212a1.455 1.455 0 0 1-.844-.13 1.849 1.849 0 0 1-.84-1.013 18.185 18.185 0 0 1-.709-2.755q-.334-1.765-.6-3.483c-.13-.8-.413-3.3-.513-3.848l3.078-.6c.073.734.3 3.4.338 4.374q.059 1.262.152 2.487.056.737.144 1.355.057.4.13.742.133.539.443.5h.024a1.02 1.02 0 0 0 .632-.559 2.987 2.987 0 0 0 .35-1.288c.024-.057.055-.089.092-.094h.025a.151.151 0 0 1 .134.094 2.028 2.028 0 0 1 .15.537 3.589 3.589 0 0 1-.084 1.282 3.545 3.545 0 0 1-.881 1.769 2.46 2.46 0 0 1-1.008.589z" transform="translate(-1290.215 -726.382)"/>
            <path id="Path_30493" data-name="Path 30493" class="cls-1" d="M1369.264 778.4a1.441 1.441 0 0 1-.919-.24 2.144 2.144 0 0 1-.752-1.253 3.107 3.107 0 0 1-.677 1.176 1.707 1.707 0 0 1-1.162.538 2.156 2.156 0 0 1-1.712-.8 4.826 4.826 0 0 1-.87-1.922 11.94 11.94 0 0 1-.217-1.491q-.033-.4-.04-.8a12.965 12.965 0 0 1 .111-1.92l2.466-.12a6.158 6.158 0 0 0-.086 1.128q0 .557.044 1.142l.032.393a7.446 7.446 0 0 0 .246 1.351q.174.559.421.538t.443-.391a3.313 3.313 0 0 0 .29-.887 5.719 5.719 0 0 0 .14-1.052 4.48 4.48 0 0 0 .007-.71l-.223-1.669 2.841-.255.117 4.144.008.1q.052.641.367.672h.08a.947.947 0 0 0 .622-.462 2.871 2.871 0 0 0 .472-1.328c.028-.056.06-.085.1-.089l.025.006a.152.152 0 0 1 .129.1 1.857 1.857 0 0 1 .125.546 3.521 3.521 0 0 1-.17 1.28 3.482 3.482 0 0 1-.987 1.717 2.469 2.469 0 0 1-1.1.541z" transform="translate(-1351.161 -767.793)"/>
            <path id="Path_30494" data-name="Path 30494" class="cls-1" d="m1477.6 775.98-.141-7.031 3.03-.014-.04.664a1.982 1.982 0 0 1 1.415-.5 3.728 3.728 0 0 1 1.315.312l-.723 2.354a1.918 1.918 0 0 0-.945-.352.8.8 0 0 0-.656.3 4.6 4.6 0 0 0-.709 2.475l-.1 1.512z" transform="translate(-1457.1 -765.729)"/>
            <path id="Path_30495" data-name="Path 30495" class="cls-1" d="m1552.2 779.412.442-6.887 3.02.234-.1.646a2.011 2.011 0 0 1 1.451-.376 3.772 3.772 0 0 1 1.284.412l-.915 2.243a1.935 1.935 0 0 0-.912-.421.813.813 0 0 0-.679.237 4.46 4.46 0 0 0-.912 2.363l-.226 1.469z" transform="translate(-1526.221 -768.987)"/>
            <path id="Path_30496" data-name="Path 30496" class="cls-1" d="m1612.665 797.419 1.844-9.668 2.792.509-.088.424a2.336 2.336 0 0 1 1.387-.1 2.147 2.147 0 0 1 1.24.765 3.1 3.1 0 0 1 .621 1.43 4.466 4.466 0 0 1-.064 1.769 4.4 4.4 0 0 1-.723 1.652 3.037 3.037 0 0 1-1.184 1 2.171 2.171 0 0 1-1.42.143 2.344 2.344 0 0 1-1.168-.65l-.61 2.8zm4.373-3.889a.556.556 0 0 0 .557-.211 2.332 2.332 0 0 0 .405-.738 3.421 3.421 0 0 0 .114-.393 3.749 3.749 0 0 0 .081-.54 2.356 2.356 0 0 0-.073-.838.572.572 0 0 0-.42-.432.6.6 0 0 0-.524.1 1.193 1.193 0 0 0-.37.508 4.254 4.254 0 0 0-.251.781 3.813 3.813 0 0 0-.1.807 1.446 1.446 0 0 0 .137.63.643.643 0 0 0 .443.322z" transform="translate(-1582.14 -783.118)"/>
        </g>
        <path id="Path_30497" data-name="Path 30497" class="cls-2" d="M1621.874 854.481s-.721 2.909-2.49 2.886-2.024-.512-2.024-.512l-.512 2.723-2.723-.256 2.816.512.628-2.443a5.412 5.412 0 0 0 1.792.256c1.024-.024 2.094-.978 2.513-3.166z" transform="translate(-376.933 -118.464)"/>
        <path id="Path_30498" data-name="Path 30498" class="cls-2" d="M1557.812 814.755a1.1 1.1 0 0 0-1.769.814 28.385 28.385 0 0 0-.582 3.048l-2.723.07 2.886.326.628-3.351s.442-1.235 1.466-.651z" transform="translate(-320.164 -81.514)"/>
        <path id="Path_30499" data-name="Path 30499" class="cls-2" d="M1485.665 806.54s-1.44-.728-1.667 1.007a28.4 28.4 0 0 0-.238 3.094l-2.7.373h2.9l.251-3.4s.3-1.275 1.384-.811z" transform="translate(-253.875 -73.989)"/>
        <path id="Path_30500" data-name="Path 30500" class="cls-2" d="M1425.636 851.8s1.233 2.862 3.77-.419c0 0-1.094 2.024-2.141 1.838a2.023 2.023 0 0 1-1.629-1.419z" transform="translate(-202.615 -115.601)"/>
        <path id="Path_30501" data-name="Path 30501" class="cls-2" d="M1375.063 858.547s.913 2.98 3.793 0c0 0-1.309 1.893-2.329 1.593a2.023 2.023 0 0 1-1.464-1.593z" transform="translate(-155.843 -122.225)"/>
        <path id="Path_30502" data-name="Path 30502" class="cls-2" d="M1317.958 863.844a1.73 1.73 0 0 0 1.8 1.272 2.733 2.733 0 0 0 2.3-1.955s-.652 2.3-2.2 2.327-1.9-1.644-1.9-1.644z" transform="translate(-103.029 -126.496)"/>
        <path id="Path_30503" data-name="Path 30503" class="cls-2" d="M1220.029 870.819a4.194 4.194 0 0 1-4.344 2.668c-3.351-.248-2.73-2.886-2.73-2.886l-.434.248s-.217 2.824 3.2 2.948a4.3 4.3 0 0 0 4.308-2.978z" transform="translate(-5.513 -133.375)"/>
        <path id="Path_30504" data-name="Path 30504" class="cls-2" d="m1343.172 729.649.651 8.315s.155.341.434.248.434-.558.434-.558-.5.621-.527.062-.714-7.726-.714-7.726z" transform="translate(-126.349 -3.022)"/>
        <path id="Path_30505" data-name="Path 30505" class="cls-2" d="M1669.375 826.787s-1.335.155-.868 2.42a3.37 3.37 0 0 1 .341-1.365 7.224 7.224 0 0 0 .527-1.055z" transform="translate(-427.141 -92.855)"/>
        <path id="Path_30506" data-name="Path 30506" class="cls-2" d="M1400.958 778.425a9.958 9.958 0 0 0 .093 3.723.548.548 0 0 0 .279.279c.186.062-.465-2.73-.124-3.692z" transform="translate(-179.662 -48.129)"/>
        <path id="Path_30507" data-name="Path 30507" class="cls-2" d="m1455.6 770.984.155 4.158s.093.434.31.217l-.155-3.941z" transform="translate(-230.33 -41.247)"/>
        <path id="Path_30508" data-name="Path 30508" class="cls-2" d="M1243.84 792.892s-1.055.776-.714 1.148a2.76 2.76 0 0 0 .714.557 1.205 1.205 0 0 1 0-1.705z" transform="translate(-33.763 -61.51)"/>
        <path id="Path_30509" data-name="Path 30509" class="cls-2" d="M1263.189 816.977s2.606.512 3.165 1.629.512 1.443.512 1.443-.093-1.955-1.117-2.606a4.521 4.521 0 0 0-2.56-.466z" transform="translate(-52.382 -83.76)"/>
        <path id="Path_30510" data-name="Path 30510" class="cls-3" d="m1624.58 809.839-1.466 7.33 1.745-6.843z" transform="translate(-385.247 -77.177)"/>
        <path id="Path_30511" data-name="Path 30511" class="cls-3" d="M1307.831 741.016s.558 8.1 1.466 9.215l-1.342-8.641z" transform="translate(-93.664 -13.535)"/>
        <path id="Path_30512" data-name="Path 30512" class="cls-3" d="M1484.015 772.818s-.549 5.381.188 6.292l-.145-5.894z" transform="translate(-256.427 -42.943)"/>
        <g id="Group_16064" data-name="Group 16064" transform="translate(1218.629 730.994)">
            <path id="Path_30513" data-name="Path 30513" class="cls-3" d="M1368.923 792.886a.8.8 0 0 1-.234-.181 2.448 2.448 0 0 1-.317-.4l-.031-.05a5.037 5.037 0 0 1-.778-1.661 5.157 5.157 0 0 1-.177-1.272v-.194a15.666 15.666 0 0 1-.025-.651 1.971 1.971 0 0 1 0-.6v-.185a.163.163 0 0 0-.1.142 8 8 0 0 0 .071 2.451 7.774 7.774 0 0 0 .319 1.194 4.625 4.625 0 0 0 .477 1.005 2.71 2.71 0 0 0 .4.487.713.713 0 0 0 .556.24.158.158 0 0 0 .148-.129 1.968 1.968 0 0 1-.309-.196z" transform="translate(-1367.202 -787.693)"/>
        </g>
        <g id="Group_16065" data-name="Group 16065" transform="translate(1206.998 729.992)">
            <path id="Path_30514" data-name="Path 30514" class="cls-3" d="M1212.628 776.771a1.875 1.875 0 0 1 .275-.849 2.14 2.14 0 0 1 .53-.7 2.207 2.207 0 0 1 1.31-.715.128.128 0 0 0-.14-.106 2.148 2.148 0 0 0-1.393.653 2.769 2.769 0 0 0-.721 1.486 2.2 2.2 0 0 0 .01 1 .141.141 0 0 0 .119.1 2.33 2.33 0 0 1-.044-.354 1.773 1.773 0 0 1 .054-.515z" transform="translate(-1212.437 -774.401)"/>
        </g>
        <g id="Group_16066" data-name="Group 16066" transform="translate(1212.948 735.233)">
            <path id="Path_30515" data-name="Path 30515" class="cls-3" d="M1292.537 844.9a2.845 2.845 0 0 0-.57-.756.141.141 0 0 0-.165-.027 2.253 2.253 0 0 1 .7 1.547 1.833 1.833 0 0 1-.226.955 2.157 2.157 0 0 1-.567.7.124.124 0 0 0 .15.042 1.314 1.314 0 0 0 .631-.62 1.838 1.838 0 0 0 .308-.9 2.021 2.021 0 0 0-.261-.941z" transform="translate(-1291.71 -844.098)"/>
        </g>
        <path id="Path_30516" data-name="Path 30516" class="cls-3" d="M1560.975 776.608s-.685 5.391-.157 6.265l.172-5.869z" transform="translate(-327.455 -46.447)"/>
        <g id="Group_16067" data-name="Group 16067" transform="translate(1242.185 732.231)">
            <path id="Path_30517" data-name="Path 30517" class="cls-3" d="M1680.821 804.449a1.426 1.426 0 0 1 1.061.305 2.181 2.181 0 0 1 1.046 1.423.136.136 0 0 0 .062-.161 2.9 2.9 0 0 0-.793-1.391 1.779 1.779 0 0 0-1.456-.467.151.151 0 0 0-.1.185.154.154 0 0 0 .18.106z" transform="translate(-1680.632 -804.143)"/>
        </g>
        <path id="Path_30518" data-name="Path 30518" class="cls-1" d="M1374.066 879.94a17.233 17.233 0 0 0 7.367 1.426c2.233-.056 4.931-.684 6.293-2.217 0 0 .562-.072.074.5s-3.278 3.384-7.025 3.1a9.847 9.847 0 0 1-6.709-2.809z" transform="translate(-154.914 -141.277)"/>
        <path id="Path_30519" data-name="Path 30519" class="cls-2" d="M1374.587 890.507a11.831 11.831 0 0 0 7.323 2.513 10.223 10.223 0 0 0 6.454-3.01s.446-.367-.041.2-3.278 3.384-7.025 3.1a9.841 9.841 0 0 1-6.711-2.803z" transform="translate(-155.396 -151.212)"/>
        <g id="Group_16068" data-name="Group 16068" transform="translate(1223.172 740.256)">
            <path id="Path_30520" data-name="Path 30520" class="cls-3" d="M1427.69 911.085a8.2 8.2 0 0 0 4 .357 10.241 10.241 0 0 0 1.052-.2.075.075 0 1 0-.04-.145 9.043 9.043 0 0 1-3.858.158 6.851 6.851 0 0 1-1.111-.311c-.091-.033-.13.111-.04.145z" transform="translate(-1427.639 -910.935)"/>
        </g>
        <g id="Group_16069" data-name="Group 16069" transform="translate(1233.083 738.633)">
            <path id="Path_30521" data-name="Path 30521" class="cls-1" d="M1562.933 905.894a5.958 5.958 0 0 1 1.681.64 1.315 1.315 0 0 0 .9.319s.6-.406-.362-1.013a2.485 2.485 0 0 0-2.219.054z" transform="translate(-1562.677 -904.363)"/>
            <path id="Path_30522" data-name="Path 30522" class="cls-1" d="M1559.529 890.687a1.758 1.758 0 0 1 .9-.568 8.422 8.422 0 0 1 1.015-.083c.231-.058.405-.7-.292-.731a1.6 1.6 0 0 0-1.623 1.382z" transform="translate(-1559.529 -889.305)"/>
        </g>
        <path id="Path_30523" data-name="Path 30523" d="M1451.1 909.052s.194.019.637.069a4.452 4.452 0 0 1 2.967 1.377c1.24 1.523 2.809 2.745 4.176 2.435 1.387-.314 2.143-2.131.619-3.755-1.514-1.553-5.207-.561-5.207-.561a13.391 13.391 0 0 1-3.192.435z" transform="translate(-226.162 -168.242)" style="fill:#f9572b"/>
        <path id="Path_30524" data-name="Path 30524" class="cls-3" d="M1456.923 915.408a10.661 10.661 0 0 1 1.736-.111 5.977 5.977 0 0 1 1.882.3 11.144 11.144 0 0 1 2.55 1.555c.105.024.264.019.167-.228a5 5 0 0 0-3.271-1.68 10.023 10.023 0 0 0-3.064.164z" transform="translate(-231.549 -174.613)"/>
    </g>
</svg>
