<svg xmlns="http://www.w3.org/2000/svg" viewBox="0 0 14.778 8.374">
    <path fill="#00b1cd" d="M9.47 3.933h-.016a1.867 1.867 0 0 0-2.707-2.321A2.6 2.6 0 0 0 1.765 2.92h-.022a1.743 1.743 0 0 0 0 3.486H9.47a1.236 1.236 0 1 0 0-2.472" transform="translate(4.072 0)"/>
    <path fill="#f2f2f1" d="M10.623 4.156h-.017a1.87 1.87 0 0 0 .172-.783A2.038 2.038 0 0 0 8.681 1.4a2.178 2.178 0 0 0-1.112.3A2.922 2.922 0 0 0 4.872 0a2.836 2.836 0 0 0-2.917 2.748 2.6 2.6 0 0 0 .024.338h-.024A1.9 1.9 0 0 0 0 4.927a1.9 1.9 0 0 0 1.955 1.842h8.668a1.348 1.348 0 0 0 1.387-1.307 1.349 1.349 0 0 0-1.387-1.306" transform="translate(0 1.605)"/>
</svg>
